<?xml version="1.0" encoding="UTF-8" standalone="no"?>
<svg
   xmlns:dc="http://purl.org/dc/elements/1.1/"
   xmlns:cc="http://creativecommons.org/ns#"
   xmlns:rdf="http://www.w3.org/1999/02/22-rdf-syntax-ns#"
   xmlns:svg="http://www.w3.org/2000/svg"
   xmlns="http://www.w3.org/2000/svg"
   xmlns:sodipodi="http://sodipodi.sourceforge.net/DTD/sodipodi-0.dtd"
   xmlns:inkscape="http://www.inkscape.org/namespaces/inkscape"
   width="100.0px"
   height="100.0px"
   viewBox="0 0 100.0 100.0"
   version="1.1"
   id="SVGRoot"
   sodipodi:docname="IconPowerGruen.svg"
   inkscape:version="1.0.1 (3bc2e813f5, 2020-09-07)"
   inkscape:export-filename="C:\Users\rober\OneDrive\Bilder\Geosoft 2\Apollo_64_Kreis.png"
   inkscape:export-xdpi="61"
   inkscape:export-ydpi="61">
  <defs
     id="defs2220" />
  <sodipodi:namedview
     id="base"
     pagecolor="#ffffff"
     bordercolor="#666666"
     borderopacity="1.0"
     inkscape:pageopacity="0.0"
     inkscape:pageshadow="2"
     inkscape:zoom="3.959798"
     inkscape:cx="85.607381"
     inkscape:cy="46.27887"
     inkscape:document-units="px"
     inkscape:current-layer="layer4"
     inkscape:document-rotation="0"
     showgrid="true"
     inkscape:window-width="1920"
     inkscape:window-height="1001"
     inkscape:window-x="-9"
     inkscape:window-y="-9"
     inkscape:window-maximized="1">
    <inkscape:grid
       type="xygrid"
       id="grid2790" />
  </sodipodi:namedview>
  <metadata
     id="metadata2223">
    <rdf:RDF>
      <cc:Work
         rdf:about="">
        <dc:format>image/svg+xml</dc:format>
        <dc:type
           rdf:resource="http://purl.org/dc/dcmitype/StillImage" />
        <dc:title></dc:title>
      </cc:Work>
    </rdf:RDF>
  </metadata>
  <g
     inkscape:label="Donkey"
     inkscape:groupmode="layer"
     id="layer1"
     style="display:none">
    <path
       style="fill:#005288;fill-opacity:1;stroke-width:0.79336"
       d="M 33.447338,93.181554 C 18.723398,87.711976 10.570945,74.618501 13.286949,60.802386 c 0.40744,-2.072653 0.620825,-3.768459 0.474167,-3.768459 -0.146658,0 -1.528621,1.108022 -3.071002,2.462264 C 7.4634464,62.32923 7.2984724,61.933867 8.6760924,54.669697 10.63628,44.333691 18.06004,34.526493 26.308445,31.376395 l 3.591264,-1.371518 0.547451,-6.517801 c 0.573439,-6.827129 2.235968,-15.3079567 3.727223,-19.0132337 3.294395,-8.185497 10.989592,6.6970147 10.973314,21.2223687 -0.0045,3.49079 -0.497326,8.667457 -1.096462,11.503719 -0.599136,2.836262 -0.962073,5.292229 -0.80653,5.457703 0.484967,0.515931 2.056108,-3.498606 3.424898,-8.751308 1.299514,-4.986787 1.342247,-5.039129 4.314345,-5.285437 3.808367,-0.315617 9.259468,2.738026 11.574566,6.483931 2.133012,3.451265 2.086082,3.806163 -0.379283,2.868841 -4.525936,-1.720761 -3.303258,-0.473755 5.658905,5.771495 11.60058,8.083808 18.21192,14.102093 19.38008,17.641644 1.39569,4.228988 -0.22924,8.800295 -4.72694,13.297995 -4.1802,4.180212 -5.92209,4.573735 -11.09079,2.505636 -5.6096,-2.244517 -5.28351,-6.315041 0.4541,-5.668326 1.9067,0.214915 3.46287,0.166845 3.45814,-0.10682 -0.006,-0.273661 -0.46829,-2.104117 -1.03016,-4.067682 -1.30687,-4.567214 -0.95552,-6.516317 1.64312,-9.114959 1.73557,-1.735586 1.89827,-2.222264 0.94451,-2.825607 -1.58143,-1.000433 -5.26155,-0.935728 -7.35289,0.129278 -0.95309,0.485364 -4.05349,3.134613 -6.889739,5.887238 -6.257408,6.072861 -10.841208,8.570683 -15.865428,8.645417 -7.121146,0.10593 -10.716931,-3.873024 -10.205242,-11.292731 0.230097,-3.336499 0.102657,-3.902251 -0.647858,-2.874954 -1.753506,2.400327 -2.012218,7.023075 -0.591765,10.573161 1.069895,2.673894 2.234565,3.863385 5.695037,5.816352 5.88897,3.323527 7.138314,6.161105 5.059615,11.49165 -0.814135,2.08771 -1.728176,5.491637 -2.031224,7.56429 -0.527054,3.604674 -0.660952,3.766664 -3.080811,3.727125 -1.391392,-0.02277 -4.772044,-0.874275 -7.512553,-1.89231 z m 7.584268,-1.368852 C 40.86249,91.305385 38.601415,90.303121 36.006996,89.585464 24.194863,86.31805 17.230239,77.868102 15.888237,65.17606 l -0.651199,-6.158734 -0.105551,6.11878 c -0.170697,9.897464 2.884217,16.002035 11.170912,22.322614 4.760109,3.630712 15.551403,6.820639 14.729185,4.353982 z m 6.522121,-23.671738 c -0.654528,-0.422988 -1.748028,-0.774533 -2.42999,-0.781214 -0.681974,-0.0063 -2.288533,-1.106625 -3.570132,-2.444318 -1.983291,-2.070129 -2.330162,-3.062678 -2.330162,-6.667799 0,-2.329599 -0.262297,-3.823455 -0.582869,-3.319687 -0.923684,1.451491 -0.70088,7.379158 0.365298,9.71918 1.046002,2.295713 4.550019,4.213456 7.754485,4.244 1.567133,0.01491 1.733643,-0.142512 0.79337,-0.750162 z m 10.33139,-18.102091 c 1.490408,-1.206858 1.634684,-1.713474 0.886262,-3.11191 -1.317629,-2.462024 -4.819008,-4.966869 -6.942878,-4.966869 -2.235623,0 -4.50545,3.119302 -4.137635,5.68613 0.505464,3.527178 6.930786,5.035244 10.194251,2.392649 z m -7.52421,-2.801592 c -1.909818,-1.396481 -0.924296,-2.89711 1.902658,-2.89711 2.739719,0 4.413238,1.666616 3.046206,3.033636 -1.233889,1.233893 -3.14688,1.181119 -4.948864,-0.136526 z M 41.475611,28.472972 c -0.01314,-4.367721 -0.455005,-8.537712 -1.050857,-9.916991 l -1.028199,-2.380088 -0.745527,3.173447 c -0.809458,3.445586 -0.383814,16.516505 0.617741,18.969599 1.174245,2.876088 2.230947,-1.838437 2.206842,-9.845967 z m 17.46141,-2.273824 c 0.284409,-1.367476 0.751327,-3.612886 1.037618,-4.989771 0.73918,-3.555056 -1.057871,-2.243818 -3.027623,2.209146 -1.593532,3.60242 -1.995862,3.796844 -6.141358,2.967744 -2.839191,-0.567838 -2.82377,-0.930831 0.340023,-8.005102 1.903093,-4.255345 8.374598,-11.3289037 10.364648,-11.3289037 2.439566,0 0.51955,20.4298997 -1.998901,21.2693877 -0.838908,0.279632 -0.971838,-0.21157 -0.574407,-2.122501 z"
       id="path1515-9-3"
       sodipodi:nodetypes="sssssscsssssssssssssssssssssssssssssssscsssscssssssssssssssssscsssssssssss" />
  </g>
  <g
     inkscape:groupmode="layer"
     id="layer3"
     inkscape:label="Play">
    <path
       style="fill:#57ba86;fill-opacity:1;stroke-width:0.704184"
       d="m 154.24749,167.42768 c -0.49228,-0.1789 -1.36371,-1.23166 -1.93651,-2.33934 -0.83923,-1.62288 -1.04146,-5.49869 -1.04146,-19.95979 0,-9.8702 0.30274,-18.74208 0.67275,-19.71529 0.37002,-0.97322 1.46302,-2.28727 2.42889,-2.92014 1.73236,-1.13508 1.99246,-1.00412 19.22044,9.67756 15.13257,9.38251 17.46432,11.05901 17.46432,12.55684 0,1.49672 -1.95845,2.90938 -14.59954,10.53089 -18.37059,11.07592 -21.10096,12.57202 -22.20889,12.16927 z"
       id="path903"
       sodipodi:nodetypes="csssscssc" />
    <ellipse
       style="fill:#005288;fill-opacity:1;stroke:none;stroke-width:0.354822;paint-order:markers fill stroke"
       id="path936"
       cx="177.34235"
       cy="46.510406"
       rx="45.617558"
       ry="45.886002" />
    <path
       style="fill:#57ba86;fill-opacity:1;stroke-width:0.680181"
       d="m 166.88481,93.920322 c -2.43164,-0.520742 -7.32895,-2.378019 -10.88289,-4.127252 -5.35821,-2.637274 -7.46099,-4.17969 -12.31307,-9.03176 -4.88741,-4.887417 -6.36959,-6.915823 -8.99733,-12.313057 -12.44934,-25.57044 -1.36923,-54.543973 25.17776,-65.8375672 1.94,-0.8253144 6.50184,-2.00311115 10.13743,-2.6173355 17.65113,-2.9821465 35.70768,4.5622487 46.31661,19.3520137 13.14532,18.325728 11.61806,43.476879 -3.64084,59.957915 -11.87077,12.821514 -28.86092,18.244191 -45.79767,14.617043 z m 20.77265,-5.41696 c 11.55827,-2.938063 22.77621,-11.871238 27.74696,-22.095651 3.72734,-7.666892 4.7541,-12.606876 4.38076,-21.077102 C 219.39853,36.55804 217.32506,30.113498 212.7214,23.375839 206.60474,14.42381 196.63889,7.7006064 186.26995,5.5310845 165.33956,1.151783 144.32717,12.984101 137.11603,33.210276 c -2.31682,6.498362 -2.8783,17.209062 -1.24352,23.721283 3.80216,15.146075 16.053,27.601524 31.0123,31.530269 4.98956,1.310411 15.69671,1.331816 20.77265,0.04145 z M 165,70 c -0.47549,-0.172809 -1.31722,-1.189679 -1.87049,-2.259602 -0.81062,-1.567563 -1.00596,-5.311256 -1.00596,-19.279428 0,-9.533754 0.29241,-18.103224 0.64982,-19.043255 0.35739,-0.940052 1.41314,-2.209312 2.34608,-2.820603 1.67331,-1.096388 1.92455,-0.969896 18.56529,9.347682 14.61674,9.062686 16.86901,10.682047 16.86901,12.128813 0,1.445703 -1.89168,2.81021 -14.10189,10.171933 C 168.70747,68.943913 166.07017,70.389021 165,70 Z"
       id="path903-1" />
  </g>
  <g
     inkscape:groupmode="layer"
     id="layer4"
     inkscape:label="Power"
     style="display:inline">
    <g
       id="g967">
      <ellipse
         style="fill:#005288;fill-opacity:1;stroke:none;stroke-width:0.354822;paint-order:markers fill stroke"
         id="path936-4"
         cx="50.628674"
         cy="49.540863"
         rx="45.617558"
         ry="45.886002" />
      <path
         style="fill:#57ba86;stroke-width:0.137671;fill-opacity:1"
         d="M 44.61127,97.593609 C 39.77301,96.953585 35.56236,95.816149 31.48492,94.047738 23.55154,90.606982 16.58404,84.962088 11.48399,77.843489 6.66156,71.112398 3.6293,62.982335 2.8536,54.70377 2.67018,52.746176 2.67087,47.633851 2.8546,45.804106 3.98893,34.519857 8.73663,24.415914 16.61177,16.526422 c 3.20676,-3.212595 7.96699,-6.7782346 10.74319,-8.0471525 1.48471,-0.6786084 3.2666,-0.6056157 4.91746,0.201441 2.81628,1.3768225 3.96332,5.0656995 2.49963,8.0388525 -0.53186,1.080375 -1.36699,1.878738 -3.08081,2.945235 -2.5356,1.577842 -4.00999,2.731985 -6.24544,4.888816 -5.82611,5.621247 -9.45868,12.853764 -10.64855,21.201486 -0.23434,1.64399 -0.23294,7.457059 0.003,9.086343 0.52012,3.604115 1.44158,6.877797 2.78578,9.896869 1.73062,3.478089 2.99809,5.717682 5.06042,8.176538 6.26773,7.492965 14.76276,12.054749 24.1783,12.983614 2.07347,0.204557 6.6623,0.08884 8.61569,-0.217346 11.10027,-1.739677 20.81602,-8.597516 26.33267,-18.58686 2.745,-4.970544 4.16576,-10.123929 4.3269,-15.694605 0.21736,-7.513849 -1.49632,-13.767405 -5.64013,-20.581965 -0.92069,-1.514074 -2.87083,-3.878999 -4.77837,-5.794689 -2.37344,-2.383592 -3.85621,-3.580265 -6.50042,-5.246201 -1.95297,-1.230442 -2.76829,-2.015758 -3.37465,-3.25054 -0.35901,-0.731071 -0.38483,-0.899124 -0.38483,-2.504557 0,-2.224491 0.27082,-2.982473 1.50235,-4.204752 1.9679,-1.9531318 4.43744,-2.3380684 6.92953,-1.08013 2.07459,1.0471914 5.67752,3.612333 8.0312,5.717872 8.74463,7.822746 14.05011,17.775478 15.76788,29.579507 0.28858,1.983104 0.40718,8.132648 0.20166,10.457097 -0.98965,11.19293 -5.80435,21.486776 -13.77395,29.448786 -6.04969,6.043924 -13.33026,10.244567 -21.48094,12.393752 -4.31838,1.138688 -6.43324,1.403639 -11.70212,1.466128 -3.66106,0.0434 -4.64026,0.01089 -6.28541,-0.206352 z M 74.7926,76.807754 c 0,-0.207455 -0.0414,-0.233428 -0.18352,-0.115374 -0.16479,0.136748 -0.1079,0.258189 0.17859,0.381018 0.003,0.0013 0.005,-0.118366 0.005,-0.265617 z M 48.50888,45.414408 C 46.85672,44.88656 45.46996,43.590595 44.79482,41.943543 l -0.2999,-0.731615 -0.0371,-16.785959 C 44.42452,9.3509244 44.44322,7.5618053 44.64184,6.8727874 c 0.49899,-1.7313684 1.57262,-2.989628 3.22603,-3.7808112 0.84139,-0.4026209 0.98966,-0.4282085 2.48137,-0.4282085 1.50848,0 1.63033,0.021714 2.47809,0.4415839 1.18103,0.5849287 1.85575,1.1642029 2.47875,2.1281227 1.02914,1.5922699 0.97819,0.5397643 0.93212,19.2512967 l -0.0411,16.727157 -0.29995,0.731751 c -1.18316,2.886473 -4.43522,4.414165 -7.38823,3.470729 z"
         id="path887"
         sodipodi:nodetypes="sssscssssssscccssssssssssssssssssssscsssscscssssscsss" />
    </g>
  </g>
  <g
     inkscape:groupmode="layer"
     id="layer2"
     inkscape:label="Zahl"
     sodipodi:insensitive="true"
     style="display:none">
    <text
       xml:space="preserve"
       style="font-size:54.1316px;line-height:1.25;font-family:sans-serif;letter-spacing:0px;fill:#57ba86;fill-opacity:1;stroke-width:1.35328"
       x="53.674248"
       y="96.29055"
       id="text1432-6-3-0-1-7-8"
       transform="scale(0.99515985,1.0048637)"><tspan
         sodipodi:role="line"
         id="tspan1430-6-7-2-4-1-8"
         x="53.674248"
         y="96.29055"
         style="font-style:normal;font-variant:normal;font-weight:normal;font-stretch:normal;font-family:'Berlin Sans FB Demi';-inkscape-font-specification:'Berlin Sans FB Demi';fill:#57ba86;fill-opacity:1;stroke-width:1.35328">13</tspan></text>
  </g>
</svg>
