<?xml version="1.0" encoding="UTF-8" standalone="no"?>
<svg
   xmlns:dc="http://purl.org/dc/elements/1.1/"
   xmlns:cc="http://creativecommons.org/ns#"
   xmlns:rdf="http://www.w3.org/1999/02/22-rdf-syntax-ns#"
   xmlns:svg="http://www.w3.org/2000/svg"
   xmlns="http://www.w3.org/2000/svg"
   xmlns:sodipodi="http://sodipodi.sourceforge.net/DTD/sodipodi-0.dtd"
   xmlns:inkscape="http://www.inkscape.org/namespaces/inkscape"
   width="100.0px"
   height="100.0px"
   viewBox="0 0 100.0 100.0"
   version="1.1"
   id="SVGRoot"
   sodipodi:docname="IconHandbuch.svg"
   inkscape:version="1.0.1 (3bc2e813f5, 2020-09-07)"
   inkscape:export-filename="C:\Users\rober\OneDrive\Bilder\Geosoft 2\Apollo_64_Kreis.png"
   inkscape:export-xdpi="61"
   inkscape:export-ydpi="61">
  <defs
     id="defs2220" />
  <sodipodi:namedview
     id="base"
     pagecolor="#ffffff"
     bordercolor="#666666"
     borderopacity="1.0"
     inkscape:pageopacity="0.0"
     inkscape:pageshadow="2"
     inkscape:zoom="2.8"
     inkscape:cx="76.182754"
     inkscape:cy="105.17051"
     inkscape:document-units="px"
     inkscape:current-layer="layer5"
     inkscape:document-rotation="0"
     showgrid="true"
     inkscape:window-width="1920"
     inkscape:window-height="1001"
     inkscape:window-x="-9"
     inkscape:window-y="-9"
     inkscape:window-maximized="1"
     showguides="true"
     inkscape:guide-bbox="true">
    <inkscape:grid
       type="xygrid"
       id="grid2790" />
    <sodipodi:guide
       position="50,100"
       orientation="1,0"
       id="guide1015" />
    <sodipodi:guide
       position="35,50"
       orientation="0,-1"
       id="guide1017" />
  </sodipodi:namedview>
  <metadata
     id="metadata2223">
    <rdf:RDF>
      <cc:Work
         rdf:about="">
        <dc:format>image/svg+xml</dc:format>
        <dc:type
           rdf:resource="http://purl.org/dc/dcmitype/StillImage" />
        <dc:title />
      </cc:Work>
    </rdf:RDF>
  </metadata>
  <g
     inkscape:label="Donkey"
     inkscape:groupmode="layer"
     id="layer1"
     style="display:none">
    <path
       style="fill:#005288;fill-opacity:1;stroke-width:0.79336"
       d="M 33.447338,93.181554 C 18.723398,87.711976 10.570945,74.618501 13.286949,60.802386 c 0.40744,-2.072653 0.620825,-3.768459 0.474167,-3.768459 -0.146658,0 -1.528621,1.108022 -3.071002,2.462264 C 7.4634464,62.32923 7.2984724,61.933867 8.6760924,54.669697 10.63628,44.333691 18.06004,34.526493 26.308445,31.376395 l 3.591264,-1.371518 0.547451,-6.517801 c 0.573439,-6.827129 2.235968,-15.3079567 3.727223,-19.0132337 3.294395,-8.185497 10.989592,6.6970147 10.973314,21.2223687 -0.0045,3.49079 -0.497326,8.667457 -1.096462,11.503719 -0.599136,2.836262 -0.962073,5.292229 -0.80653,5.457703 0.484967,0.515931 2.056108,-3.498606 3.424898,-8.751308 1.299514,-4.986787 1.342247,-5.039129 4.314345,-5.285437 3.808367,-0.315617 9.259468,2.738026 11.574566,6.483931 2.133012,3.451265 2.086082,3.806163 -0.379283,2.868841 -4.525936,-1.720761 -3.303258,-0.473755 5.658905,5.771495 11.60058,8.083808 18.21192,14.102093 19.38008,17.641644 1.39569,4.228988 -0.22924,8.800295 -4.72694,13.297995 -4.1802,4.180212 -5.92209,4.573735 -11.09079,2.505636 -5.6096,-2.244517 -5.28351,-6.315041 0.4541,-5.668326 1.9067,0.214915 3.46287,0.166845 3.45814,-0.10682 -0.006,-0.273661 -0.46829,-2.104117 -1.03016,-4.067682 -1.30687,-4.567214 -0.95552,-6.516317 1.64312,-9.114959 1.73557,-1.735586 1.89827,-2.222264 0.94451,-2.825607 -1.58143,-1.000433 -5.26155,-0.935728 -7.35289,0.129278 -0.95309,0.485364 -4.05349,3.134613 -6.889739,5.887238 -6.257408,6.072861 -10.841208,8.570683 -15.865428,8.645417 -7.121146,0.10593 -10.716931,-3.873024 -10.205242,-11.292731 0.230097,-3.336499 0.102657,-3.902251 -0.647858,-2.874954 -1.753506,2.400327 -2.012218,7.023075 -0.591765,10.573161 1.069895,2.673894 2.234565,3.863385 5.695037,5.816352 5.88897,3.323527 7.138314,6.161105 5.059615,11.49165 -0.814135,2.08771 -1.728176,5.491637 -2.031224,7.56429 -0.527054,3.604674 -0.660952,3.766664 -3.080811,3.727125 -1.391392,-0.02277 -4.772044,-0.874275 -7.512553,-1.89231 z m 7.584268,-1.368852 C 40.86249,91.305385 38.601415,90.303121 36.006996,89.585464 24.194863,86.31805 17.230239,77.868102 15.888237,65.17606 l -0.651199,-6.158734 -0.105551,6.11878 c -0.170697,9.897464 2.884217,16.002035 11.170912,22.322614 4.760109,3.630712 15.551403,6.820639 14.729185,4.353982 z m 6.522121,-23.671738 c -0.654528,-0.422988 -1.748028,-0.774533 -2.42999,-0.781214 -0.681974,-0.0063 -2.288533,-1.106625 -3.570132,-2.444318 -1.983291,-2.070129 -2.330162,-3.062678 -2.330162,-6.667799 0,-2.329599 -0.262297,-3.823455 -0.582869,-3.319687 -0.923684,1.451491 -0.70088,7.379158 0.365298,9.71918 1.046002,2.295713 4.550019,4.213456 7.754485,4.244 1.567133,0.01491 1.733643,-0.142512 0.79337,-0.750162 z m 10.33139,-18.102091 c 1.490408,-1.206858 1.634684,-1.713474 0.886262,-3.11191 -1.317629,-2.462024 -4.819008,-4.966869 -6.942878,-4.966869 -2.235623,0 -4.50545,3.119302 -4.137635,5.68613 0.505464,3.527178 6.930786,5.035244 10.194251,2.392649 z m -7.52421,-2.801592 c -1.909818,-1.396481 -0.924296,-2.89711 1.902658,-2.89711 2.739719,0 4.413238,1.666616 3.046206,3.033636 -1.233889,1.233893 -3.14688,1.181119 -4.948864,-0.136526 z M 41.475611,28.472972 c -0.01314,-4.367721 -0.455005,-8.537712 -1.050857,-9.916991 l -1.028199,-2.380088 -0.745527,3.173447 c -0.809458,3.445586 -0.383814,16.516505 0.617741,18.969599 1.174245,2.876088 2.230947,-1.838437 2.206842,-9.845967 z m 17.46141,-2.273824 c 0.284409,-1.367476 0.751327,-3.612886 1.037618,-4.989771 0.73918,-3.555056 -1.057871,-2.243818 -3.027623,2.209146 -1.593532,3.60242 -1.995862,3.796844 -6.141358,2.967744 -2.839191,-0.567838 -2.82377,-0.930831 0.340023,-8.005102 1.903093,-4.255345 8.374598,-11.3289037 10.364648,-11.3289037 2.439566,0 0.51955,20.4298997 -1.998901,21.2693877 -0.838908,0.279632 -0.971838,-0.21157 -0.574407,-2.122501 z"
       id="path1515-9-3"
       sodipodi:nodetypes="sssssscsssssssssssssssssssssssssssssssscsssscssssssssssssssssscsssssssssss" />
  </g>
  <g
     inkscape:groupmode="layer"
     id="layer3"
     inkscape:label="Play">
    <path
       style="fill:#57ba86;fill-opacity:1;stroke-width:0.704184"
       d="m 154.24749,167.42768 c -0.49228,-0.1789 -1.36371,-1.23166 -1.93651,-2.33934 -0.83923,-1.62288 -1.04146,-5.49869 -1.04146,-19.95979 0,-9.8702 0.30274,-18.74208 0.67275,-19.71529 0.37002,-0.97322 1.46302,-2.28727 2.42889,-2.92014 1.73236,-1.13508 1.99246,-1.00412 19.22044,9.67756 15.13257,9.38251 17.46432,11.05901 17.46432,12.55684 0,1.49672 -1.95845,2.90938 -14.59954,10.53089 -18.37059,11.07592 -21.10096,12.57202 -22.20889,12.16927 z"
       id="path903"
       sodipodi:nodetypes="csssscssc" />
    <ellipse
       style="fill:#005288;fill-opacity:1;stroke:none;stroke-width:0.354822;paint-order:markers fill stroke"
       id="path936"
       cx="177.34235"
       cy="46.510406"
       rx="45.617558"
       ry="45.886002" />
    <path
       style="fill:#57ba86;fill-opacity:1;stroke-width:0.680181"
       d="m 166.88481,93.920322 c -2.43164,-0.520742 -7.32895,-2.378019 -10.88289,-4.127252 -5.35821,-2.637274 -7.46099,-4.17969 -12.31307,-9.03176 -4.88741,-4.887417 -6.36959,-6.915823 -8.99733,-12.313057 -12.44934,-25.57044 -1.36923,-54.543973 25.17776,-65.8375672 1.94,-0.8253144 6.50184,-2.00311115 10.13743,-2.6173355 17.65113,-2.9821465 35.70768,4.5622487 46.31661,19.3520137 13.14532,18.325728 11.61806,43.476879 -3.64084,59.957915 -11.87077,12.821514 -28.86092,18.244191 -45.79767,14.617043 z m 20.77265,-5.41696 c 11.55827,-2.938063 22.77621,-11.871238 27.74696,-22.095651 3.72734,-7.666892 4.7541,-12.606876 4.38076,-21.077102 C 219.39853,36.55804 217.32506,30.113498 212.7214,23.375839 206.60474,14.42381 196.63889,7.7006064 186.26995,5.5310845 165.33956,1.151783 144.32717,12.984101 137.11603,33.210276 c -2.31682,6.498362 -2.8783,17.209062 -1.24352,23.721283 3.80216,15.146075 16.053,27.601524 31.0123,31.530269 4.98956,1.310411 15.69671,1.331816 20.77265,0.04145 z M 165,70 c -0.47549,-0.172809 -1.31722,-1.189679 -1.87049,-2.259602 -0.81062,-1.567563 -1.00596,-5.311256 -1.00596,-19.279428 0,-9.533754 0.29241,-18.103224 0.64982,-19.043255 0.35739,-0.940052 1.41314,-2.209312 2.34608,-2.820603 1.67331,-1.096388 1.92455,-0.969896 18.56529,9.347682 14.61674,9.062686 16.86901,10.682047 16.86901,12.128813 0,1.445703 -1.89168,2.81021 -14.10189,10.171933 C 168.70747,68.943913 166.07017,70.389021 165,70 Z"
       id="path903-1" />
  </g>
  <g
     inkscape:groupmode="layer"
     id="layer4"
     inkscape:label="Power"
     style="display:inline">
    <g
       id="g967"
       transform="translate(223.8029,-161.21193)">
      <ellipse
         style="fill:#005288;fill-opacity:1;stroke:none;stroke-width:0.354822;paint-order:markers fill stroke"
         id="path936-4"
         cx="50.628674"
         cy="49.540863"
         rx="45.617558"
         ry="45.886002" />
      <path
         style="fill:#57ba86;fill-opacity:1;stroke-width:0.137671"
         d="M 44.61127,97.593609 C 39.77301,96.953585 35.56236,95.816149 31.48492,94.047738 23.55154,90.606982 16.58404,84.962088 11.48399,77.843489 6.66156,71.112398 3.6293,62.982335 2.8536,54.70377 2.67018,52.746176 2.67087,47.633851 2.8546,45.804106 3.98893,34.519857 8.73663,24.415914 16.61177,16.526422 c 3.20676,-3.212595 7.96699,-6.7782346 10.74319,-8.0471525 1.48471,-0.6786084 3.2666,-0.6056157 4.91746,0.201441 2.81628,1.3768225 3.96332,5.0656995 2.49963,8.0388525 -0.53186,1.080375 -1.36699,1.878738 -3.08081,2.945235 -2.5356,1.577842 -4.00999,2.731985 -6.24544,4.888816 -5.82611,5.621247 -9.45868,12.853764 -10.64855,21.201486 -0.23434,1.64399 -0.23294,7.457059 0.003,9.086343 0.52012,3.604115 1.44158,6.877797 2.78578,9.896869 1.73062,3.478089 2.99809,5.717682 5.06042,8.176538 6.26773,7.492965 14.76276,12.054749 24.1783,12.983614 2.07347,0.204557 6.6623,0.08884 8.61569,-0.217346 11.10027,-1.739677 20.81602,-8.597516 26.33267,-18.58686 2.745,-4.970544 4.16576,-10.123929 4.3269,-15.694605 0.21736,-7.513849 -1.49632,-13.767405 -5.64013,-20.581965 -0.92069,-1.514074 -2.87083,-3.878999 -4.77837,-5.794689 -2.37344,-2.383592 -3.85621,-3.580265 -6.50042,-5.246201 -1.95297,-1.230442 -2.76829,-2.015758 -3.37465,-3.25054 -0.35901,-0.731071 -0.38483,-0.899124 -0.38483,-2.504557 0,-2.224491 0.27082,-2.982473 1.50235,-4.204752 1.9679,-1.9531318 4.43744,-2.3380684 6.92953,-1.08013 2.07459,1.0471914 5.67752,3.612333 8.0312,5.717872 8.74463,7.822746 14.05011,17.775478 15.76788,29.579507 0.28858,1.983104 0.40718,8.132648 0.20166,10.457097 -0.98965,11.19293 -5.80435,21.486776 -13.77395,29.448786 -6.04969,6.043924 -13.33026,10.244567 -21.48094,12.393752 -4.31838,1.138688 -6.43324,1.403639 -11.70212,1.466128 -3.66106,0.0434 -4.64026,0.01089 -6.28541,-0.206352 z M 74.7926,76.807754 c 0,-0.207455 -0.0414,-0.233428 -0.18352,-0.115374 -0.16479,0.136748 -0.1079,0.258189 0.17859,0.381018 0.003,0.0013 0.005,-0.118366 0.005,-0.265617 z M 48.50888,45.414408 C 46.85672,44.88656 45.46996,43.590595 44.79482,41.943543 l -0.2999,-0.731615 -0.0371,-16.785959 C 44.42452,9.3509244 44.44322,7.5618053 44.64184,6.8727874 c 0.49899,-1.7313684 1.57262,-2.989628 3.22603,-3.7808112 0.84139,-0.4026209 0.98966,-0.4282085 2.48137,-0.4282085 1.50848,0 1.63033,0.021714 2.47809,0.4415839 1.18103,0.5849287 1.85575,1.1642029 2.47875,2.1281227 1.02914,1.5922699 0.97819,0.5397643 0.93212,19.2512967 l -0.0411,16.727157 -0.29995,0.731751 c -1.18316,2.886473 -4.43522,4.414165 -7.38823,3.470729 z"
         id="path887"
         sodipodi:nodetypes="sssscssssssscccssssssssssssssssssssscsssscscssssscsss" />
    </g>
  </g>
  <g
     inkscape:groupmode="layer"
     id="layer5"
     inkscape:label="Handbuch">
    <path
       style="display:inline;fill:#005288;fill-opacity:1;stroke:#000000;stroke-width:1px;stroke-linecap:butt;stroke-linejoin:miter;stroke-opacity:1"
       d="m -100.68463,258.38603 c 8.33333,-1.66667 16.66667,-3.33333 25,-5 0,-3.33333 0,-6.66667 0,-10 11.66667,-1.66667 23.33333,-3.33333 35,-5 1.66667,-5 3.33333,-10 5,-15 50.88835,-19.67969 97.88065,13.5224 145,45 54.60456,-48.0274 104.7685,-48.6531 155,-50 0,6.66667 0,13.33333 0,20 11.66667,1.66667 23.33333,3.33333 35,5 0,3.33333 0,6.66667 0,10 8.33333,1.66667 16.66667,3.33333 25,5 0,93.33333 0,186.66667 0,280 -41.66667,-3.33333 -83.33333,-6.66667 -125,-10 -18.06666,40.23623 -45.39953,66.72095 -85,75 -51.66666,-13.33333 -80,-40 -85,-80 -41.66667,5 -83.33333,10 -125,15 -1.66667,-93.33333 -3.33333,-186.66667 -5,-280 z"
       id="path867"
       sodipodi:nodetypes="ccccccccccccccccc" />
    <path
       style="display:inline;fill:#57ba86;fill-opacity:1"
       d="m 94.81537,608.07643 c -28.2085,-6.23594 -50.45945,-23.94198 -62.42102,-49.67108 -2.13342,-4.58894 -4.6644,-11.71852 -5.62439,-15.84352 -0.96,-4.125 -2.06648,-7.86397 -2.45884,-8.30881 -0.93287,-1.05767 -40.702,0.90384 -57.99575,2.8605 -16.20876,1.83389 -39.52792,5.65678 -51.42038,8.42975 -10.36151,2.41598 -13.72515,2.51179 -17.61235,0.50163 -6.36066,-3.28922 -5.96727,6.45447 -5.96727,-147.79855 v -140.4148 l 2.07755,-2.64118 c 3.0145,-3.83231 5.24617,-4.73736 14.79138,-5.99858 8.53252,-1.12741 8.55331,-1.13728 9.21389,-4.3738 1.41267,-6.9215 5.06076,-8.78052 19.97144,-10.1772 6.29516,-0.58967 12.17163,-1.07366 13.05883,-1.07554 1.26168,-0.003 1.72475,-1.39443 2.12563,-6.38859 1.24591,-15.52139 7.76259,-18.32196 40.26128,-17.30243 13.73337,0.43084 20.86089,1.16493 30.0695,3.097 30.01807,6.29813 56.42331,19.12075 80.21483,38.95304 l 9.28432,7.73929 9.21568,-7.74149 c 23.36474,-19.6272 50.19539,-32.66683 80.14617,-38.95084 9.20861,-1.93207 16.33613,-2.66616 30.0695,-3.097 32.49869,-1.01953 39.01537,1.78104 40.26128,17.30243 0.40088,4.99416 0.86395,6.38591 2.12563,6.38859 0.8872,0.002 6.76367,0.48587 13.05883,1.07554 14.91068,1.39668 18.55877,3.2557 19.97144,10.1772 0.66057,3.23652 0.68137,3.24639 9.21389,4.3738 9.54521,1.26122 11.77688,2.16627 14.79138,5.99858 l 2.07755,2.64118 v 140.4148 c 0,154.25302 0.3934,144.50933 -5.96727,147.79855 -3.88721,2.01016 -7.25084,1.91435 -17.61235,-0.50163 -11.89246,-2.77297 -35.21162,-6.59586 -51.42038,-8.42975 -17.29375,-1.95666 -57.06288,-3.91817 -57.99575,-2.8605 -0.39236,0.44484 -1.49884,4.18381 -2.45884,8.30881 -3.71539,15.96462 -13.04014,31.68651 -25.85667,43.59533 -11.7759,10.94191 -26.7834,18.76411 -41.89658,21.83731 -9.2894,1.88896 -26.93278,1.92994 -35.29216,0.082 z m 40,-17.90457 c 22.12317,-7.53725 38.93069,-24.35485 46.30421,-46.33198 2.32298,-6.92377 2.61433,-9.37062 2.65269,-22.27805 0.0396,-13.33325 -0.18208,-15.1557 -2.75532,-22.64881 -8.32429,-24.23973 -28.04207,-42.28167 -52.38253,-47.93047 -8.68411,-2.01536 -24.08235,-1.98202 -32.95755,0.0714 -19.32038,4.47002 -37.84672,18.74122 -47.17396,36.33903 -5.55089,10.47293 -7.34991,17.58301 -7.91972,31.3003 -0.48197,11.6025 -0.306,13.39455 2.16031,22 7.36198,25.68748 25.91876,43.92664 51.79538,50.90886 10.944,2.95299 29.32696,2.30019 40.27649,-1.43025 z M 90.76992,570.10728 c -1.54724,-1.54723 -2.45455,-3.59708 -2.45455,-5.54545 0,-5.10575 3.78226,-8 10.45455,-8 h 5.54545 v -21 -21 h -3.41821 c -4.79708,0 -6.43915,-0.82349 -8.11878,-4.07152 -2.10215,-4.06512 -1.83549,-5.70985 1.46007,-9.0054 2.64105,-2.64106 3.56072,-2.92308 9.53212,-2.92308 3.63497,0 8.1397,0.63955 10.0105,1.42122 6.13013,2.56133 6.5343,4.54244 6.5343,32.02912 v 24.54966 h 5.54545 c 6.67229,0 10.45455,2.89425 10.45455,8 0,1.94837 -0.90731,3.99822 -2.45455,5.54545 -2.43463,2.43464 -2.60942,2.45455 -21.54545,2.45455 -18.93603,0 -19.11082,-0.0199 -21.54545,-2.45455 z m 13.65552,-81.89126 c -8.33597,-4.7936 -5.99476,-17.0552 3.49965,-18.32867 3.56237,-0.47781 4.55307,-0.15187 7.47571,2.4595 4.39706,3.92877 4.7567,9.8274 0.83809,13.746 -3.04569,3.0457 -8.50344,4.02659 -11.81345,2.12317 z m -183.67315,39.8777 c 31.13214,-6.19454 62.22128,-9.53189 88.79436,-9.53189 10.19306,0 13.93283,-0.32882 14.21673,-1.25 0.21189,-0.6875 0.64498,-3.11182 0.96243,-5.38738 l 0.57718,-4.13739 -4.74381,-0.73876 c -17.18721,-2.67657 -54.41793,-1.88514 -73.74381,1.56761 -19.22757,3.43518 -20.48463,3.47368 -24.5,0.75041 -2.02281,-1.3719 -4.00375,-3.83632 -4.69356,-5.83912 -0.89708,-2.60458 -1.20758,-32.71424 -1.25,-121.21537 l -0.0564,-117.75 h -2.91821 c -1.60502,0 -3.63002,0.27314 -4.5,0.60699 -1.43136,0.54926 -1.58179,13.19738 -1.58179,133 0,72.81615 0.23239,132.39301 0.51642,132.39301 0.28402,0 6.09825,-1.11065 12.9205,-2.46811 z m 396.56308,-129.9249 c 0,-119.80262 -0.15043,-132.45074 -1.58179,-133 -0.86998,-0.33385 -2.89498,-0.60699 -4.5,-0.60699 h -2.91821 l -0.0239,116.75 c -0.0138,67.76411 -0.41146,118.42832 -0.94764,120.75 -1.0024,4.34036 -4.59532,8.10219 -8.72939,9.13978 -1.43328,0.35973 -7.82442,-0.30481 -14.20254,-1.47675 -17.84357,-3.27865 -28.68611,-4.20887 -48.95968,-4.20043 -15.118,0.006 -34.74259,1.30977 -35.81143,2.3786 -0.12217,0.12217 0.0968,2.45788 0.48663,5.19047 l 0.70876,4.96833 20.98958,0.65506 c 29.66841,0.92593 55.8569,3.91161 80.98957,9.23343 6.05,1.28108 11.7875,2.39275 12.75,2.47037 1.65857,0.13377 1.75,-6.77619 1.75,-132.25187 z m -367,93.6766 c 11.72568,-1.89503 53.25532,-2.45581 69.59441,-0.93974 l 9.09441,0.84384 3.65559,-7.69763 c 2.01057,-4.23371 3.65559,-8.05164 3.65559,-8.4843 0,-1.03316 -13.1652,-4.53061 -24.5,-6.50865 -6.08335,-1.0616 -14.18515,-1.51184 -25,-1.3893 -8.8,0.0997 -17.95757,0.17046 -20.35017,0.15721 -4.69037,-0.026 -8.10535,-1.98567 -11.58804,-6.64983 -2.04752,-2.74211 -2.06365,-3.48514 -2.32991,-107.31578 l -0.26811,-104.55454 -9.23029,0.72207 c -5.07666,0.39714 -9.56851,0.9311 -9.98188,1.18658 -0.41338,0.25548 -0.7516,55.17184 -0.7516,122.03634 v 121.57182 l 3.75,-0.64057 c 2.0625,-0.35232 8.475,-1.4042 14.25,-2.33752 z m 342,-118.72457 c 0,-66.79254 -0.33822,-121.65002 -0.7516,-121.9055 -0.41337,-0.25548 -4.90522,-0.78944 -9.98188,-1.18658 l -9.23029,-0.72207 -0.26812,104.55454 c -0.26625,103.83064 -0.28239,104.57367 -2.3299,107.31578 -3.48269,4.66416 -6.89767,6.62386 -11.58804,6.64983 -2.3926,0.0133 -11.55017,-0.0575 -20.35017,-0.15721 -10.81485,-0.12254 -18.91665,0.3277 -25,1.3893 -11.3348,1.97804 -24.5,5.47549 -24.5,6.50865 0,0.43266 1.6434,4.24718 3.65199,8.47671 l 3.65199,7.69006 5.09801,-0.54897 c 2.80391,-0.30193 15.25626,-0.85024 27.6719,-1.21846 22.67998,-0.67264 36.73858,0.14096 52.42611,3.03401 3.85,0.71001 8.0125,1.35167 9.25,1.42591 l 2.25,0.13498 z M 51.3692,457.9645 c 10.92235,-11.40143 30.74837,-21.14022 48.69617,-23.92018 l 4.25,-0.65829 v -79.29744 -79.29745 l -6.6382,-6.20971 C 76.78781,249.04046 51.2943,235.74055 21.81537,229.00449 11.85639,226.72882 6.71988,226.18228 -8.38431,225.7911 c -10.00982,-0.25924 -19.34925,-0.18282 -20.75428,0.16982 l -2.55462,0.64117 0.25429,112.56838 0.25429,112.56838 17.5,-0.12084 c 20.02678,-0.13828 34.65525,1.86823 49.57584,6.80009 4.90829,1.62238 9.62338,2.99343 10.47799,3.04676 0.85461,0.0533 3.10461,-1.52183 5,-3.50036 z M 68.31537,429.00626 C 50.68068,419.94619 30.74564,414.89281 8.59611,413.86787 c -12.1266,-0.56114 -13.39975,-0.80382 -15.40283,-2.936 -3.04399,-3.24017 -2.76793,-8.20739 0.61801,-11.12004 2.17253,-1.86886 3.79862,-2.25 9.59926,-2.25 16.83449,0 36.45247,3.50414 54.31372,9.70145 12.42343,4.31055 27.17975,11.66142 28.55033,14.22237 2.92956,5.47394 -0.71535,12.16845 -6.52368,11.98189 -1.61455,-0.0519 -6.76055,-2.05944 -11.43555,-4.46128 z m 0,-42.0367 c -17.09956,-8.85897 -37.71729,-14.10922 -59.3763,-15.12002 -11.27955,-0.52641 -13.19013,-0.87086 -15.40692,-2.77767 -3.53225,-3.03831 -3.33205,-8.15363 0.44632,-11.40385 2.70968,-2.3309 3.11196,-2.37775 15.30985,-1.78284 25.34085,1.23591 46.05863,6.63114 68.1865,17.75682 4.26834,2.14608 8.2286,4.7764 8.80059,5.84516 2.92879,5.4725 -0.71697,12.16692 -6.52449,11.98038 -1.61455,-0.0519 -6.76055,-2.07595 -11.43555,-4.49798 z m 5,-37.28642 C 52.96358,338.86305 30.70291,333.12428 5.54827,332.21286 c -11.05283,-0.40047 -13.58311,-1.47155 -14.47295,-6.12642 -0.70678,-3.69729 1.73944,-8.36086 4.78676,-9.12569 1.46991,-0.36892 8.81072,-0.42432 16.31292,-0.1231 21.21341,0.85173 40.4013,5.59807 60.11429,14.86994 5.76066,2.70949 11.49816,5.88856 12.75,7.0646 4.32959,4.06744 2.11786,11.94865 -3.72392,13.2697 -1.6764,0.3791 -4.31191,-0.39796 -8,-2.35875 z M 68.8269,297.86491 C 57.6531,291.81957 37.82769,286.86606 21.00042,285.91515 7.2601,285.13869 4.31537,283.75941 4.31537,278.10003 c 0,-5.08236 2.73828,-7.71055 8.62263,-8.27596 12.95296,-1.24462 41.5636,4.33341 56.93454,11.10013 10.10781,4.44975 12.44283,6.49293 12.44283,10.88765 0,6.64944 -6.77042,9.68772 -13.48847,6.05306 z M 190.96234,457.6987 c 16.30452,-4.79029 28.6733,-6.31685 48.24219,-5.9541 l 17.11346,0.31723 -0.001,-112.73095 -10e-4,-112.73095 -2.55032,-0.64009 c -5.51899,-1.38517 -38.67232,0.35495 -48.94968,2.56923 -28.76736,6.19799 -57.0108,20.55844 -76.82304,39.06089 l -7.67758,7.16943 v 79.31332 79.31332 l 4.25,0.65829 c 17.99506,2.78728 37.80437,12.53327 48.75,23.98454 2.44514,2.5581 4.10278,3.50939 5.5,3.15636 1.1,-0.27793 6.56614,-1.84687 12.14697,-3.48652 z m -51.47266,-26.45132 c -2.3352,-2.48572 -2.81522,-6.61948 -1.13354,-9.76173 1.37058,-2.56095 16.1269,-9.91182 28.55033,-14.22237 17.86125,-6.19731 37.47923,-9.70145 54.31372,-9.70145 5.80064,0 7.42673,0.38114 9.59926,2.25 3.38594,2.91265 3.662,7.87987 0.61801,11.12004 -2.00627,2.13558 -3.26433,2.37315 -15.49473,2.92598 -21.98089,0.99355 -40.94318,5.82158 -60.0393,15.28671 -10.10464,5.00844 -13.29953,5.41775 -16.41375,2.10282 z m 0,-42 c -2.3348,-2.48529 -2.81527,-6.61939 -1.13435,-9.76022 0.57199,-1.06876 4.53225,-3.69908 8.80059,-5.84516 22.12787,-11.12568 42.84565,-16.52091 68.1865,-17.75682 12.19789,-0.59491 12.60017,-0.54806 15.30985,1.78284 3.77837,3.25022 3.97857,8.36554 0.44632,11.40385 -2.21679,1.90681 -4.12737,2.25126 -15.40692,2.77767 -21.66997,1.01131 -39.98157,5.61423 -58.96028,14.82064 -11.3238,5.49308 -14.11099,5.90969 -17.24171,2.5772 z m 2.14106,-37.69253 c -4.66669,-1.88025 -5.83685,-9.21503 -2.03929,-12.78266 1.25184,-1.17604 6.98934,-4.35511 12.75,-7.0646 19.71299,-9.27187 38.90088,-14.01821 60.11429,-14.86994 7.5022,-0.30122 14.84301,-0.24582 16.31292,0.1231 3.04732,0.76483 5.49354,5.4284 4.78676,9.12569 -0.88984,4.65487 -3.42012,5.72595 -14.47295,6.12642 -25.34096,0.91817 -47.24947,6.62273 -68.18438,17.75393 -5.27261,2.80348 -5.95887,2.92107 -9.26735,1.58806 z m 2.93463,-54.22648 c -1.3837,-1.47314 -2.25,-3.65108 -2.25,-5.65666 0,-4.17306 2.49141,-6.40146 11.5,-10.28602 16.43803,-7.08816 34.38187,-11.00166 51.32937,-11.19477 10.77408,-0.12276 11.42351,-0.0134 13.25,2.23169 2.83754,3.48783 2.51221,8.52872 -0.71423,11.06664 -2.01597,1.58577 -4.07736,2.07258 -8.77623,2.07258 -14.82192,0 -32.03043,3.55649 -46.43261,9.59625 -11.56151,4.84848 -14.99935,5.26515 -17.9063,2.17029 z"
       id="path865" />
    <path
       style="display:inline;fill:#57ba86;fill-opacity:1;stroke:#000000;stroke-width:1px;stroke-linecap:butt;stroke-linejoin:miter;stroke-opacity:1"
       d="m -618,260.21722 c 8.33333,-1.66667 16.66667,-3.33333 25,-5 0,-3.33333 0,-6.66667 0,-10 11.66667,-1.66667 23.33333,-3.33333 35,-5 1.66667,-5 3.33333,-10 5,-15 50.88835,-19.6797 97.88065,13.5224 145,45 54.60456,-48.0274 104.7685,-48.6531 155,-50.00001 0,6.66668 0,13.33334 0,20.00001 11.66667,1.66667 23.33333,3.33333 35,5 0,3.33333 0,6.66667 0,10 8.33333,1.66667 16.66667,3.33333 25,5 0,93.33332 0,186.66666 0,279.99999 -41.66667,-3.33333 -83.33333,-6.66667 -125,-10 -18.06666,40.23623 -45.39953,66.72095 -85,75 -51.66666,-13.33333 -80,-40 -85,-80 -41.66667,5 -83.33333,10 -125,15 -1.66667,-93.33333 -3.33333,-186.66667 -5,-279.99999 z"
       id="path867-1"
       sodipodi:nodetypes="ccccccccccccccccc" />
    <path
       style="display:inline;fill:#005288;fill-opacity:1"
       d="m -422.5,609.90761 c -28.2085,-6.23594 -50.45945,-23.94198 -62.42102,-49.67108 -2.13342,-4.58894 -4.6644,-11.71852 -5.62439,-15.84352 -0.96,-4.125 -2.06648,-7.86397 -2.45884,-8.30881 -0.93287,-1.05767 -40.702,0.90384 -57.99575,2.8605 -16.20876,1.83389 -39.52792,5.65678 -51.42038,8.42975 -10.36151,2.41598 -13.72515,2.51179 -17.61235,0.50163 C -626.39339,544.58686 -626,554.33055 -626,400.07753 V 259.66274 l 2.07755,-2.64118 c 3.0145,-3.83231 5.24617,-4.73736 14.79138,-5.99858 8.53252,-1.12741 8.55331,-1.13728 9.21389,-4.3738 1.41267,-6.9215 5.06076,-8.78052 19.97144,-10.1772 6.29516,-0.58967 12.17163,-1.07366 13.05883,-1.07554 1.26168,-0.003 1.72475,-1.39443 2.12563,-6.38859 1.24591,-15.5214 7.76259,-18.32197 40.26128,-17.30244 13.73337,0.43084 20.86089,1.16493 30.0695,3.097 30.01807,6.29813 56.42331,19.12076 80.21483,38.95305 l 9.28432,7.73929 9.21568,-7.74149 c 23.36474,-19.6272 50.19539,-32.66684 80.14617,-38.95085 9.20861,-1.93207 16.33613,-2.66616 30.0695,-3.097 32.49869,-1.01953 39.01537,1.78104 40.26128,17.30244 0.40088,4.99416 0.86395,6.38591 2.12563,6.38859 0.8872,0.002 6.76367,0.48587 13.05883,1.07554 14.91068,1.39668 18.55877,3.2557 19.97144,10.1772 0.66057,3.23652 0.68137,3.24639 9.21389,4.3738 9.54521,1.26122 11.77688,2.16627 14.79138,5.99858 L -184,259.66274 v 140.41479 c 0,154.25302 0.3934,144.50933 -5.96727,147.79855 -3.88721,2.01016 -7.25084,1.91435 -17.61235,-0.50163 -11.89246,-2.77297 -35.21162,-6.59586 -51.42038,-8.42975 -17.29375,-1.95666 -57.06288,-3.91817 -57.99575,-2.8605 -0.39236,0.44484 -1.49884,4.18381 -2.45884,8.30881 -3.71539,15.96462 -13.04014,31.68651 -25.85667,43.59533 -11.7759,10.94191 -26.7834,18.76411 -41.89658,21.83731 -9.2894,1.88896 -26.93278,1.92994 -35.29216,0.082 z m 40,-17.90457 c 22.12317,-7.53725 38.93069,-24.35485 46.30421,-46.33198 2.32298,-6.92377 2.61433,-9.37062 2.65269,-22.27805 0.0396,-13.33325 -0.18208,-15.1557 -2.75532,-22.64881 -8.32429,-24.23973 -28.04207,-42.28167 -52.38253,-47.93047 -8.68411,-2.01536 -24.08235,-1.98202 -32.95755,0.0714 -19.32038,4.47002 -37.84672,18.74122 -47.17396,36.33903 -5.55089,10.47293 -7.34991,17.58301 -7.91972,31.3003 -0.48197,11.6025 -0.306,13.39455 2.16031,22 7.36198,25.68748 25.91876,43.92664 51.79538,50.90886 10.944,2.95299 29.32696,2.30019 40.27649,-1.43025 z m -44.04545,-20.06458 C -428.09269,570.39123 -429,568.34138 -429,566.39301 c 0,-5.10575 3.78226,-8 10.45455,-8 H -413 v -21 -21 h -3.41821 c -4.79708,0 -6.43915,-0.82349 -8.11878,-4.07152 -2.10215,-4.06512 -1.83549,-5.70985 1.46007,-9.0054 2.64105,-2.64106 3.56072,-2.92308 9.53212,-2.92308 3.63497,0 8.1397,0.63955 10.0105,1.42122 6.13013,2.56133 6.5343,4.54244 6.5343,32.02912 v 24.54966 h 5.54545 c 6.67229,0 10.45455,2.89425 10.45455,8 0,1.94837 -0.90731,3.99822 -2.45455,5.54545 -2.43463,2.43464 -2.60942,2.45455 -21.54545,2.45455 -18.93603,0 -19.11082,-0.0199 -21.54545,-2.45455 z m 13.65552,-81.89126 c -8.33597,-4.7936 -5.99476,-17.0552 3.49965,-18.32867 3.56237,-0.47781 4.55307,-0.15187 7.47571,2.4595 4.39706,3.92877 4.7567,9.8274 0.83809,13.746 -3.04569,3.0457 -8.50344,4.02659 -11.81345,2.12317 z m -183.67315,39.8777 c 31.13214,-6.19454 62.22128,-9.53189 88.79436,-9.53189 10.19306,0 13.93283,-0.32882 14.21673,-1.25 0.21189,-0.6875 0.64498,-3.11182 0.96243,-5.38738 l 0.57718,-4.13739 -4.74381,-0.73876 c -17.18721,-2.67657 -54.41793,-1.88514 -73.74381,1.56761 -19.22757,3.43518 -20.48463,3.47368 -24.5,0.75041 -2.02281,-1.3719 -4.00375,-3.83632 -4.69356,-5.83912 -0.89708,-2.60458 -1.20758,-32.71424 -1.25,-121.21537 l -0.0564,-117.74999 h -2.91821 c -1.60502,0 -3.63002,0.27314 -4.5,0.60699 -1.43136,0.54926 -1.58179,13.19738 -1.58179,132.99999 0,72.81615 0.23239,132.39301 0.51642,132.39301 0.28402,0 6.09825,-1.11065 12.9205,-2.46811 z M -200,400 c 0,-119.80261 -0.15043,-132.45073 -1.58179,-132.99999 -0.86998,-0.33385 -2.89498,-0.60699 -4.5,-0.60699 H -209 l -0.0239,116.74999 c -0.0138,67.76411 -0.41146,118.42832 -0.94764,120.75 -1.0024,4.34036 -4.59532,8.10219 -8.72939,9.13978 -1.43328,0.35973 -7.82442,-0.30481 -14.20254,-1.47675 -17.84357,-3.27865 -28.68611,-4.20887 -48.95968,-4.20043 -15.118,0.006 -34.74259,1.30977 -35.81143,2.3786 -0.12217,0.12217 0.0968,2.45788 0.48663,5.19047 l 0.70876,4.96833 20.98958,0.65506 c 29.66841,0.92593 55.8569,3.91161 80.98957,9.23343 6.05,1.28108 11.7875,2.39275 12.75,2.47037 1.65857,0.13377 1.75,-6.77619 1.75,-132.25187 z m -367,93.6766 c 11.72568,-1.89503 53.25532,-2.45581 69.59441,-0.93974 l 9.09441,0.84384 3.65559,-7.69763 c 2.01057,-4.23371 3.65559,-8.05164 3.65559,-8.4843 0,-1.03316 -13.1652,-4.53061 -24.5,-6.50865 -6.08335,-1.0616 -14.18515,-1.51184 -25,-1.3893 -8.8,0.0997 -17.95757,0.17046 -20.35017,0.15721 -4.69037,-0.026 -8.10535,-1.98567 -11.58804,-6.64983 -2.04752,-2.74211 -2.06365,-3.48514 -2.32991,-107.31578 l -0.26811,-104.55453 -9.23029,0.72207 c -5.07666,0.39714 -9.56851,0.9311 -9.98188,1.18658 -0.41338,0.25548 -0.7516,55.17184 -0.7516,122.03633 v 121.57182 l 3.75,-0.64057 c 2.0625,-0.35232 8.475,-1.4042 14.25,-2.33752 z m 342,-118.72457 c 0,-66.79253 -0.33822,-121.65001 -0.7516,-121.90549 -0.41337,-0.25548 -4.90522,-0.78944 -9.98188,-1.18658 l -9.23029,-0.72207 -0.26812,104.55453 c -0.26625,103.83064 -0.28239,104.57367 -2.3299,107.31578 -3.48269,4.66416 -6.89767,6.62386 -11.58804,6.64983 -2.3926,0.0133 -11.55017,-0.0575 -20.35017,-0.15721 -10.81485,-0.12254 -18.91665,0.3277 -25,1.3893 -11.3348,1.97804 -24.5,5.47549 -24.5,6.50865 0,0.43266 1.6434,4.24718 3.65199,8.47671 l 3.65199,7.69006 5.09801,-0.54897 c 2.80391,-0.30193 15.25626,-0.85024 27.6719,-1.21846 22.67998,-0.67264 36.73858,0.14096 52.42611,3.03401 3.85,0.71001 8.0125,1.35167 9.25,1.42591 l 2.25,0.13498 z m -240.94617,84.84365 c 10.92235,-11.40143 30.74837,-21.14022 48.69617,-23.92018 l 4.25,-0.65829 v -79.29744 -79.29744 l -6.6382,-6.20971 c -20.88936,-19.54097 -46.38287,-32.84088 -75.8618,-39.57694 -9.95898,-2.27567 -15.09549,-2.82221 -30.19968,-3.21339 -10.00982,-0.25924 -19.34925,-0.18282 -20.75428,0.16982 l -2.55462,0.64117 0.25429,112.56837 0.25429,112.56838 17.5,-0.12084 c 20.02678,-0.13828 34.65525,1.86823 49.57584,6.80009 4.90829,1.62238 9.62338,2.99343 10.47799,3.04676 0.85461,0.0533 3.10461,-1.52183 5,-3.50036 z M -449,430.83744 c -17.63469,-9.06007 -37.56973,-14.11345 -59.71926,-15.13839 -12.1266,-0.56114 -13.39975,-0.80382 -15.40283,-2.936 -3.04399,-3.24017 -2.76793,-8.20739 0.61801,-11.12004 2.17253,-1.86886 3.79862,-2.25 9.59926,-2.25 16.83449,0 36.45247,3.50414 54.31372,9.70145 12.42343,4.31055 27.17975,11.66142 28.55033,14.22237 2.92956,5.47394 -0.71535,12.16845 -6.52368,11.98189 -1.61455,-0.0519 -6.76055,-2.05944 -11.43555,-4.46128 z m 0,-42.0367 c -17.09956,-8.85897 -37.71729,-14.10922 -59.3763,-15.12002 -11.27955,-0.52641 -13.19013,-0.87086 -15.40692,-2.77767 -3.53225,-3.03831 -3.33205,-8.15363 0.44632,-11.40385 2.70968,-2.3309 3.11196,-2.37775 15.30985,-1.78284 25.34085,1.23591 46.05863,6.63114 68.1865,17.75682 4.26834,2.14608 8.2286,4.7764 8.80059,5.84516 2.92879,5.4725 -0.71697,12.16692 -6.52449,11.98038 -1.61455,-0.0519 -6.76055,-2.07595 -11.43555,-4.49798 z m 5,-37.28642 c -20.35179,-10.82009 -42.61246,-16.55886 -67.7671,-17.47028 -11.05283,-0.40047 -13.58311,-1.47155 -14.47295,-6.12642 -0.70678,-3.69729 1.73944,-8.36086 4.78676,-9.12569 1.46991,-0.36892 8.81072,-0.42432 16.31292,-0.1231 21.21341,0.85173 40.4013,5.59807 60.11429,14.86994 5.76066,2.70949 11.49816,5.88856 12.75,7.0646 4.32959,4.06744 2.11786,11.94865 -3.72392,13.2697 -1.6764,0.3791 -4.31191,-0.39796 -8,-2.35875 z m -4.48847,-51.81822 c -11.1738,-6.04534 -30.99921,-10.99885 -47.82648,-11.94976 C -510.05527,286.96988 -513,285.5906 -513,279.93122 c 0,-5.08236 2.73828,-7.71055 8.62263,-8.27596 12.95296,-1.24462 41.5636,4.33341 56.93454,11.10013 10.10781,4.44975 12.44283,6.49293 12.44283,10.88765 0,6.64944 -6.77042,9.68772 -13.48847,6.05306 z m 122.13544,159.83378 c 16.30452,-4.79029 28.6733,-6.31685 48.24219,-5.9541 l 17.11346,0.31723 -10e-4,-112.73095 -10e-4,-112.73094 -2.55032,-0.64009 c -5.51899,-1.38517 -38.67232,0.35495 -48.94968,2.56923 -28.76736,6.19799 -57.0108,20.55844 -76.82304,39.06089 L -397,276.59058 v 79.31331 79.31332 l 4.25,0.65829 c 17.99506,2.78728 37.80437,12.53327 48.75,23.98454 2.44514,2.5581 4.10278,3.50939 5.5,3.15636 1.1,-0.27793 6.56614,-1.84687 12.14697,-3.48652 z m -51.47266,-26.45132 c -2.3352,-2.48572 -2.81522,-6.61948 -1.13354,-9.76173 1.37058,-2.56095 16.1269,-9.91182 28.55033,-14.22237 17.86125,-6.19731 37.47923,-9.70145 54.31372,-9.70145 5.80064,0 7.42673,0.38114 9.59926,2.25 3.38594,2.91265 3.662,7.87987 0.61801,11.12004 -2.00627,2.13558 -3.26433,2.37315 -15.49473,2.92598 -21.98089,0.99355 -40.94318,5.82158 -60.0393,15.28671 -10.10464,5.00844 -13.29953,5.41775 -16.41375,2.10282 z m 0,-42 c -2.3348,-2.48529 -2.81527,-6.61939 -1.13435,-9.76022 0.57199,-1.06876 4.53225,-3.69908 8.80059,-5.84516 22.12787,-11.12568 42.84565,-16.52091 68.1865,-17.75682 12.19789,-0.59491 12.60017,-0.54806 15.30985,1.78284 3.77837,3.25022 3.97857,8.36554 0.44632,11.40385 -2.21679,1.90681 -4.12737,2.25126 -15.40692,2.77767 -21.66997,1.01131 -39.98157,5.61423 -58.96028,14.82064 -11.3238,5.49308 -14.11099,5.90969 -17.24171,2.5772 z m 2.14106,-37.69253 c -4.66669,-1.88025 -5.83685,-9.21503 -2.03929,-12.78266 1.25184,-1.17604 6.98934,-4.35511 12.75,-7.0646 19.71299,-9.27187 38.90088,-14.01821 60.11429,-14.86994 7.5022,-0.30122 14.84301,-0.24582 16.31292,0.1231 3.04732,0.76483 5.49354,5.4284 4.78676,9.12569 -0.88984,4.65487 -3.42012,5.72595 -14.47295,6.12642 -25.34096,0.91817 -47.24947,6.62273 -68.18438,17.75393 -5.27261,2.80348 -5.95887,2.92107 -9.26735,1.58806 z m 2.93463,-54.22647 c -1.3837,-1.47314 -2.25,-3.65108 -2.25,-5.65666 0,-4.17306 2.49141,-6.40146 11.5,-10.28602 16.43803,-7.08816 34.38187,-11.00166 51.32937,-11.19477 10.77408,-0.12276 11.42351,-0.0134 13.25,2.23169 2.83754,3.48783 2.51221,8.52872 -0.71423,11.06664 -2.01597,1.58577 -4.07736,2.07258 -8.77623,2.07258 -14.82192,0 -32.03043,3.55649 -46.43261,9.59625 -11.56151,4.84848 -14.99935,5.26515 -17.9063,2.17029 z"
       id="path865-0" />
    <path
       style="display:inline;fill:#57ba86;fill-opacity:1;stroke:#000000;stroke-width:1px;stroke-linecap:butt;stroke-linejoin:miter;stroke-opacity:1"
       d="m -618,700.21723 c 8.33333,-1.66667 16.66667,-3.33333 25,-5 0,-3.33333 0,-6.66667 0,-10 11.66667,-1.66667 23.33333,-3.33333 35,-5 1.66667,-5 3.33333,-10 5,-15 50.88835,-19.67971 97.88065,13.5224 145,44.99999 54.60456,-48.02739 104.7685,-48.65309 155,-50 0,6.66668 0,13.33334 0,20.00001 11.66667,1.66667 23.33333,3.33333 35,5 0,3.33333 0,6.66667 0,10 8.33333,1.66667 16.66667,3.33333 25,5 0,93.33329 0,186.66669 0,279.99999 -41.66667,-3.3333 -83.33333,-6.6667 -125,-10 -18.06666,40.23618 -45.39953,66.72088 -85,74.99998 -51.66666,-13.3334 -80,-40 -85,-79.99998 -41.66667,5 -83.33333,10 -125,15 -1.66667,-93.3333 -3.33333,-186.6667 -5,-279.99999 z"
       id="path867-1-9"
       sodipodi:nodetypes="ccccccccccccccccc" />
    <circle
       style="display:inline;fill:#005288;fill-opacity:1;stroke:none;stroke-width:0.42647;paint-order:markers fill stroke"
       id="path911"
       cx="-403.64163"
       cy="963.53864"
       r="78.985748" />
    <path
       style="display:inline;fill:#000000;fill-opacity:1"
       d="m -422.5,1049.9076 c -28.2085,-6.236 -50.45945,-23.942 -62.42102,-49.6711 -2.13342,-4.58888 -4.6644,-11.71848 -5.62439,-15.84348 -0.96,-4.125 -2.06648,-7.864 -2.45884,-8.3088 -0.93287,-1.0577 -40.702,0.9038 -57.99575,2.8605 -16.20876,1.8339 -39.52792,5.6568 -51.42038,8.4297 -10.36151,2.416 -13.72515,2.5118 -17.61235,0.5017 -6.36066,-3.2893 -5.96727,6.4544 -5.96727,-147.7986 V 699.66275 l 2.07755,-2.64118 c 3.0145,-3.83231 5.24617,-4.73736 14.79138,-5.99858 8.53252,-1.12741 8.55331,-1.13728 9.21389,-4.3738 1.41267,-6.9215 5.06076,-8.78052 19.97144,-10.1772 6.29516,-0.58967 12.17163,-1.07366 13.05883,-1.07554 1.26168,-0.003 1.72475,-1.39443 2.12563,-6.38859 1.24591,-15.52141 7.76259,-18.32198 40.26128,-17.30245 13.73337,0.43084 20.86089,1.16493 30.0695,3.097 30.01807,6.29814 56.42331,19.12077 80.21483,38.95306 l 9.28432,7.73929 9.21568,-7.74149 c 23.36474,-19.6272 50.19539,-32.66684 80.14617,-38.95086 9.20861,-1.93207 16.33613,-2.66616 30.0695,-3.097 32.49869,-1.01953 39.01537,1.78104 40.26128,17.30245 0.40088,4.99416 0.86395,6.38591 2.12563,6.38859 0.8872,0.002 6.76367,0.48587 13.05883,1.07554 14.91068,1.39668 18.55877,3.2557 19.97144,10.1772 0.66057,3.23652 0.68137,3.24639 9.21389,4.3738 9.54521,1.26122 11.77688,2.16627 14.79138,5.99858 L -184,699.66275 v 140.41477 c 0,154.253 0.3934,144.5093 -5.96727,147.7986 -3.88721,2.0101 -7.25084,1.9143 -17.61235,-0.5017 -11.89246,-2.7729 -35.21162,-6.5958 -51.42038,-8.4297 -17.29375,-1.9567 -57.06288,-3.9182 -57.99575,-2.8605 -0.39236,0.4448 -1.49884,4.1838 -2.45884,8.3088 -3.71539,15.96458 -13.04014,31.68648 -25.85667,43.59528 -11.7759,10.9419 -26.7834,18.7641 -41.89658,21.8373 -9.2894,1.889 -26.93278,1.93 -35.29216,0.082 z m 40,-17.9046 c 22.12317,-7.5372 38.93069,-24.3548 46.30421,-46.33198 2.32298,-6.9237 2.61433,-9.3706 2.65269,-22.278 0.0396,-13.3333 -0.18208,-15.1557 -2.75532,-22.6488 -8.32429,-24.2397 -28.04207,-42.2817 -52.38253,-47.9305 -8.68411,-2.0153 -24.08235,-1.982 -32.95755,0.071 -19.32038,4.47 -37.84672,18.7412 -47.17396,36.339 -5.55089,10.473 -7.34991,17.5831 -7.91972,31.3003 -0.48197,11.6025 -0.306,13.3946 2.16031,22 7.36198,25.68748 25.91876,43.92668 51.79538,50.90888 10.944,2.953 29.32696,2.3002 40.27649,-1.4303 z m -44.04545,-20.0646 c -1.54724,-1.5472 -2.45455,-3.5971 -2.45455,-5.5454 0,-5.1058 3.78226,-7.99998 10.45455,-7.99998 H -413 v -21 -21 h -3.41821 c -4.79708,0 -6.43915,-0.8235 -8.11878,-4.0715 -2.10215,-4.0651 -1.83549,-5.7099 1.46007,-9.0054 2.64105,-2.6411 3.56072,-2.9231 9.53212,-2.9231 3.63497,0 8.1397,0.6395 10.0105,1.4212 6.13013,2.5613 6.5343,4.5425 6.5343,32.0291 v 24.5497 h 5.54545 c 6.67229,0 10.45455,2.89418 10.45455,7.99998 0,1.9483 -0.90731,3.9982 -2.45455,5.5454 -2.43463,2.4347 -2.60942,2.4546 -21.54545,2.4546 -18.93603,0 -19.11082,-0.02 -21.54545,-2.4546 z m 13.65552,-81.89118 c -8.33597,-4.7936 -5.99476,-17.0552 3.49965,-18.3287 3.56237,-0.4778 4.55307,-0.1519 7.47571,2.4595 4.39706,3.9288 4.7567,9.8274 0.83809,13.746 -3.04569,3.0457 -8.50344,4.0266 -11.81345,2.1232 z m -183.67315,39.8777 c 31.13214,-6.1946 62.22128,-9.5319 88.79436,-9.5319 10.19306,0 13.93283,-0.3288 14.21673,-1.25 0.21189,-0.6875 0.64498,-3.1118 0.96243,-5.3874 l 0.57718,-4.1374 -4.74381,-0.7387 c -17.18721,-2.6766 -54.41793,-1.8852 -73.74381,1.5676 -19.22757,3.4352 -20.48463,3.4737 -24.5,0.7504 -2.02281,-1.3719 -4.00375,-3.8363 -4.69356,-5.8391 -0.89708,-2.6046 -1.20758,-32.7143 -1.25,-121.2154 l -0.0564,-117.75 h -2.91821 c -1.60502,0 -3.63002,0.2732 -4.5,0.607 -1.43136,0.5493 -1.58179,13.1974 -1.58179,133 0,72.8161 0.23239,132.393 0.51642,132.393 0.28402,0 6.09825,-1.1107 12.9205,-2.4681 z M -200,840.00002 c 0,-119.8026 -0.15043,-132.4507 -1.58179,-133 -0.86998,-0.3338 -2.89498,-0.607 -4.5,-0.607 H -209 l -0.0239,116.75 c -0.0138,67.7641 -0.41146,118.4283 -0.94764,120.75 -1.0024,4.3404 -4.59532,8.1022 -8.72939,9.1398 -1.43328,0.3597 -7.82442,-0.3048 -14.20254,-1.4768 -17.84357,-3.2786 -28.68611,-4.2088 -48.95968,-4.2004 -15.118,0.01 -34.74259,1.3098 -35.81143,2.3786 -0.12217,0.1222 0.0968,2.4579 0.48663,5.1905 l 0.70876,4.9683 20.98958,0.6551 c 29.66841,0.9259 55.8569,3.9116 80.98957,9.2334 6.05,1.2811 11.7875,2.3927 12.75,2.4704 1.65857,0.1337 1.75,-6.7762 1.75,-132.2519 z m -367,93.6766 c 11.72568,-1.895 53.25532,-2.4558 69.59441,-0.9398 l 9.09441,0.8439 3.65559,-7.6976 c 2.01057,-4.2338 3.65559,-8.0517 3.65559,-8.4843 0,-1.0332 -13.1652,-4.5307 -24.5,-6.5087 -6.08335,-1.0616 -14.18515,-1.5118 -25,-1.3893 -8.8,0.1 -17.95757,0.1705 -20.35017,0.1572 -4.69037,-0.026 -8.10535,-1.9857 -11.58804,-6.6498 -2.04752,-2.7421 -2.06365,-3.4852 -2.32991,-107.3158 l -0.26811,-104.55452 -9.23029,0.72207 c -5.07666,0.39714 -9.56851,0.9311 -9.98188,1.18658 -0.41338,0.25548 -0.7516,55.17187 -0.7516,122.03637 v 121.5718 l 3.75,-0.6406 c 2.0625,-0.3523 8.475,-1.4042 14.25,-2.3375 z m 342,-118.7246 c 0,-66.7925 -0.33822,-121.64999 -0.7516,-121.90547 -0.41337,-0.25548 -4.90522,-0.78944 -9.98188,-1.18658 l -9.23029,-0.72207 -0.26812,104.55452 c -0.26625,103.8306 -0.28239,104.5737 -2.3299,107.3158 -3.48269,4.6641 -6.89767,6.6238 -11.58804,6.6498 -2.3926,0.013 -11.55017,-0.057 -20.35017,-0.1572 -10.81485,-0.1225 -18.91665,0.3277 -25,1.3893 -11.3348,1.978 -24.5,5.4755 -24.5,6.5087 0,0.4326 1.6434,4.2471 3.65199,8.4767 l 3.65199,7.69 5.09801,-0.5489 c 2.80391,-0.302 15.25626,-0.8503 27.6719,-1.2185 22.67998,-0.6726 36.73858,0.141 52.42611,3.034 3.85,0.71 8.0125,1.3517 9.25,1.4259 l 2.25,0.135 z m -240.94617,84.8437 c 10.92235,-11.4015 30.74837,-21.1403 48.69617,-23.9202 l 4.25,-0.6583 v -79.2974 -79.2975 l -6.6382,-6.2097 c -20.88936,-19.54096 -46.38287,-32.84087 -75.8618,-39.57693 -9.95898,-2.27567 -15.09549,-2.82221 -30.19968,-3.21339 -10.00982,-0.25924 -19.34925,-0.18282 -20.75428,0.16982 l -2.55462,0.64117 0.25429,112.56833 0.25429,112.5684 17.5,-0.1208 c 20.02678,-0.1383 34.65525,1.8682 49.57584,6.8001 4.90829,1.6223 9.62338,2.9934 10.47799,3.0467 0.85461,0.053 3.10461,-1.5218 5,-3.5003 z M -449,870.83742 c -17.63469,-9.06 -37.56973,-14.1134 -59.71926,-15.1384 -12.1266,-0.5611 -13.39975,-0.8038 -15.40283,-2.936 -3.04399,-3.2401 -2.76793,-8.2074 0.61801,-11.12 2.17253,-1.8689 3.79862,-2.25 9.59926,-2.25 16.83449,0 36.45247,3.5041 54.31372,9.7014 12.42343,4.3106 27.17975,11.6615 28.55033,14.2224 2.92956,5.474 -0.71535,12.1685 -6.52368,11.9819 -1.61455,-0.052 -6.76055,-2.0594 -11.43555,-4.4613 z m 0,-42.0367 c -17.09956,-8.8589 -37.71729,-14.1092 -59.3763,-15.12 -11.27955,-0.5264 -13.19013,-0.8709 -15.40692,-2.7777 -3.53225,-3.0383 -3.33205,-8.1536 0.44632,-11.4038 2.70968,-2.3309 3.11196,-2.3778 15.30985,-1.7829 25.34085,1.236 46.05863,6.6312 68.1865,17.7569 4.26834,2.146 8.2286,4.7764 8.80059,5.8451 2.92879,5.4725 -0.71697,12.1669 -6.52449,11.9804 -1.61455,-0.052 -6.76055,-2.0759 -11.43555,-4.498 z m 5,-37.2864 c -20.35179,-10.8201 -42.61246,-16.5589 -67.7671,-17.4703 -11.05283,-0.4004 -13.58311,-1.4715 -14.47295,-6.1264 -0.70678,-3.6973 1.73944,-8.3609 4.78676,-9.1257 1.46991,-0.3689 8.81072,-0.4243 16.31292,-0.1231 21.21341,0.8517 40.4013,5.5981 60.11429,14.87 5.76066,2.7094 11.49816,5.8885 12.75,7.0646 4.32959,4.0674 2.11786,11.9486 -3.72392,13.2697 -1.6764,0.3791 -4.31191,-0.398 -8,-2.3588 z m -4.48847,-51.8182 c -11.1738,-6.0453 -30.99921,-10.9989 -47.82648,-11.9498 -13.74032,-0.7764 -16.68505,-2.1557 -16.68505,-7.8151 0,-5.0823 2.73828,-7.7105 8.62263,-8.2759 12.95296,-1.2447 41.5636,4.3334 56.93454,11.1001 10.10781,4.4497 12.44283,6.4929 12.44283,10.8876 0,6.6495 -6.77042,9.6878 -13.48847,6.0531 z m 122.13544,159.8338 c 16.30452,-4.7903 28.6733,-6.3169 48.24219,-5.9541 l 17.11346,0.3172 -10e-4,-112.731 -10e-4,-112.73089 -2.55032,-0.64009 c -5.51899,-1.38517 -38.67232,0.35495 -48.94968,2.56923 -28.76736,6.19799 -57.0108,20.55844 -76.82304,39.06085 L -397,716.59062 v 79.3133 79.3133 l 4.25,0.6583 c 17.99506,2.7873 37.80437,12.5333 48.75,23.9845 2.44514,2.5581 4.10278,3.5094 5.5,3.1564 1.1,-0.2779 6.56614,-1.8469 12.14697,-3.4865 z m -51.47266,-26.4514 c -2.3352,-2.4857 -2.81522,-6.6194 -1.13354,-9.7617 1.37058,-2.5609 16.1269,-9.9118 28.55033,-14.2224 17.86125,-6.1973 37.47923,-9.7014 54.31372,-9.7014 5.80064,0 7.42673,0.3811 9.59926,2.25 3.38594,2.9126 3.662,7.8799 0.61801,11.12 -2.00627,2.1356 -3.26433,2.3732 -15.49473,2.926 -21.98089,0.9936 -40.94318,5.8216 -60.0393,15.2867 -10.10464,5.0085 -13.29953,5.4178 -16.41375,2.1028 z m 0,-42 c -2.3348,-2.4852 -2.81527,-6.6193 -1.13435,-9.7602 0.57199,-1.0687 4.53225,-3.6991 8.80059,-5.8451 22.12787,-11.1257 42.84565,-16.5209 68.1865,-17.7569 12.19789,-0.5949 12.60017,-0.548 15.30985,1.7829 3.77837,3.2502 3.97857,8.3655 0.44632,11.4038 -2.21679,1.9068 -4.12737,2.2513 -15.40692,2.7777 -21.66997,1.0113 -39.98157,5.6142 -58.96028,14.8206 -11.3238,5.4931 -14.11099,5.9097 -17.24171,2.5772 z m 2.14106,-37.6925 c -4.66669,-1.8802 -5.83685,-9.215 -2.03929,-12.7826 1.25184,-1.1761 6.98934,-4.3552 12.75,-7.0646 19.71299,-9.2719 38.90088,-14.0183 60.11429,-14.87 7.5022,-0.3012 14.84301,-0.2458 16.31292,0.1231 3.04732,0.7648 5.49354,5.4284 4.78676,9.1257 -0.88984,4.6549 -3.42012,5.726 -14.47295,6.1264 -25.34096,0.9182 -47.24947,6.6228 -68.18438,17.754 -5.27261,2.8034 -5.95887,2.921 -9.26735,1.588 z m 2.93463,-54.2264 c -1.3837,-1.4732 -2.25,-3.6511 -2.25,-5.6567 0,-4.1731 2.49141,-6.4015 11.5,-10.286 16.43803,-7.0882 34.38187,-11.0017 51.32937,-11.1948 10.77408,-0.1228 11.42351,-0.013 13.25,2.2317 2.83754,3.4878 2.51221,8.5287 -0.71423,11.0666 -2.01597,1.5858 -4.07736,2.0726 -8.77623,2.0726 -14.82192,0 -32.03043,3.5565 -46.43261,9.5963 -11.56151,4.8484 -14.99935,5.2651 -17.9063,2.1703 z"
       id="path865-0-3" />
    <path
       style="display:inline;fill:#005288;fill-opacity:1;stroke:#000000;stroke-width:1px;stroke-linecap:butt;stroke-linejoin:miter;stroke-opacity:1"
       d="m -100.68463,696.98092 c 8.33333,-1.66667 16.66667,-3.33333 25,-5 0,-3.33333 0,-6.66667 0,-10 11.66667,-1.66667 23.33333,-3.33333 35,-5 1.66667,-5 3.33333,-10 5,-15 50.88835,-19.67971 97.88065,13.5224 145,45 54.60456,-48.0274 104.7685,-48.6531 155,-50.00001 0,6.66668 0,13.33334 0,20.00001 11.66667,1.66667 23.33333,3.33333 35,5 0,3.33333 0,6.66667 0,10 8.33333,1.66667 16.66667,3.33333 25,5 0,93.3334 0,186.6667 0,280 -41.66667,-3.3333 -83.33333,-6.6666 -125,-10 -18.06666,40.23608 -45.39953,66.72078 -85,74.99988 -51.66666,-13.3334 -80,-40 -85,-79.99988 -41.66667,5 -83.33333,10 -125,15 -1.66667,-93.3333 -3.33333,-186.6666 -5,-280 z"
       id="path867-1-9-4"
       sodipodi:nodetypes="ccccccccccccccccc" />
    <circle
       style="display:inline;fill:#57ba86;fill-opacity:1;stroke:none;stroke-width:0.42647;paint-order:markers fill stroke"
       id="path911-9"
       cx="113.67369"
       cy="960.30219"
       r="78.985748" />
    <path
       style="display:inline;fill:#000000;fill-opacity:1"
       d="m 94.81537,1046.6712 c -28.2085,-6.236 -50.45945,-23.942 -62.42102,-49.67108 -2.13342,-4.5888 -4.6644,-11.7184 -5.62439,-15.8434 -0.96,-4.125 -2.06648,-7.8639 -2.45884,-8.3088 -0.93287,-1.0577 -40.702,0.9039 -57.99575,2.8605 -16.20876,1.8339 -39.52792,5.6568 -51.42038,8.4298 -10.36151,2.4159 -13.72515,2.5118 -17.61235,0.5016 -6.36066,-3.2892 -5.96727,6.4544 -5.96727,-147.7986 V 696.42644 l 2.07755,-2.64118 c 3.0145,-3.83231 5.24617,-4.73736 14.79138,-5.99858 8.53252,-1.12741 8.55331,-1.13728 9.21389,-4.3738 1.41267,-6.9215 5.06076,-8.78052 19.97144,-10.1772 6.29516,-0.58967 12.17163,-1.07366 13.05883,-1.07554 1.26168,-0.003 1.72475,-1.39443 2.12563,-6.38859 1.24591,-15.52141 7.76259,-18.32198 40.26128,-17.30245 13.73337,0.43084 20.86089,1.16493 30.0695,3.097 30.01807,6.29814 56.42331,19.12077 80.21483,38.95306 l 9.28432,7.73929 9.21568,-7.74149 c 23.36474,-19.6272 50.19539,-32.66684 80.14617,-38.95086 9.20861,-1.93207 16.33613,-2.66616 30.0695,-3.097 32.49869,-1.01953 39.01537,1.78104 40.26128,17.30245 0.40088,4.99416 0.86395,6.38591 2.12563,6.38859 0.8872,0.002 6.76367,0.48587 13.05883,1.07554 14.91068,1.39668 18.55877,3.2557 19.97144,10.1772 0.66057,3.23652 0.68137,3.24639 9.21389,4.3738 9.54521,1.26122 11.77688,2.16627 14.79138,5.99858 l 2.07755,2.64118 v 140.41478 c 0,154.253 0.3934,144.5094 -5.96727,147.7986 -3.88721,2.0102 -7.25084,1.9143 -17.61235,-0.5016 -11.89246,-2.773 -35.21162,-6.5959 -51.42038,-8.4298 -17.29375,-1.9566 -57.06288,-3.9182 -57.99575,-2.8605 -0.39236,0.4449 -1.49884,4.1838 -2.45884,8.3088 -3.71539,15.9645 -13.04014,31.68638 -25.85667,43.59518 -11.7759,10.9419 -26.7834,18.7641 -41.89658,21.8373 -9.2894,1.889 -26.93278,1.93 -35.29216,0.082 z m 40,-17.9046 c 22.12317,-7.5372 38.93069,-24.3548 46.30421,-46.33178 2.32298,-6.9238 2.61433,-9.3706 2.65269,-22.2781 0.0396,-13.3332 -0.18208,-15.1557 -2.75532,-22.6488 -8.32429,-24.2397 -28.04207,-42.2817 -52.38253,-47.9305 -8.68411,-2.0153 -24.08235,-1.982 -32.95755,0.071 -19.32038,4.4701 -37.84672,18.7413 -47.17396,36.3391 -5.55089,10.4729 -7.34991,17.583 -7.91972,31.3003 -0.48197,11.6025 -0.306,13.3945 2.16031,22 7.36198,25.68728 25.91876,43.92648 51.79538,50.90868 10.944,2.953 29.32696,2.3002 40.27649,-1.4303 z M 90.76992,1008.702 c -1.54724,-1.5472 -2.45455,-3.5971 -2.45455,-5.5454 0,-5.10578 3.78226,-7.99998 10.45455,-7.99998 h 5.54545 v -20.9999 -21 h -3.41821 c -4.79708,0 -6.43915,-0.8235 -8.11878,-4.0715 -2.10215,-4.0651 -1.83549,-5.7098 1.46007,-9.0054 2.64105,-2.6411 3.56072,-2.9231 9.53212,-2.9231 3.63497,0 8.1397,0.6396 10.0105,1.4212 6.13013,2.5614 6.5343,4.5425 6.5343,32.0292 v 24.5495 h 5.54545 c 6.67229,0 10.45455,2.8942 10.45455,7.99998 0,1.9483 -0.90731,3.9982 -2.45455,5.5454 -2.43463,2.4347 -2.60942,2.4546 -21.54545,2.4546 -18.93603,0 -19.11082,-0.02 -21.54545,-2.4546 z m 13.65552,-81.89108 c -8.33597,-4.7936 -5.99476,-17.0552 3.49965,-18.3287 3.56237,-0.4778 4.55307,-0.1518 7.47571,2.4595 4.39706,3.9288 4.7567,9.8274 0.83809,13.746 -3.04569,3.0457 -8.50344,4.0266 -11.81345,2.1232 z m -183.67315,39.8777 c 31.13214,-6.1945 62.22128,-9.5319 88.79436,-9.5319 10.19306,0 13.93283,-0.3288 14.21673,-1.25 0.21189,-0.6875 0.64498,-3.1118 0.96243,-5.3874 l 0.57718,-4.1373 -4.74381,-0.7388 c -17.18721,-2.6766 -54.41793,-1.8851 -73.74381,1.5676 -19.22757,3.4352 -20.48463,3.4737 -24.5,0.7504 -2.02281,-1.3719 -4.00375,-3.8363 -4.69356,-5.8391 -0.89708,-2.6046 -1.20758,-32.7142 -1.25,-121.2154 l -0.0564,-117.75 h -2.91821 c -1.60502,0 -3.63002,0.27314 -4.5,0.60699 -1.43136,0.54931 -1.58179,13.19741 -1.58179,133.00001 0,72.8162 0.23239,132.393 0.51642,132.393 0.28402,0 6.09825,-1.1106 12.9205,-2.4681 z m 396.56308,-129.9249 c 0,-119.8026 -0.15043,-132.4507 -1.58179,-133.00001 -0.86998,-0.33385 -2.89498,-0.60699 -4.5,-0.60699 h -2.91821 l -0.0239,116.75 c -0.0138,67.7641 -0.41146,118.4283 -0.94764,120.75 -1.0024,4.3404 -4.59532,8.1022 -8.72939,9.1398 -1.43328,0.3597 -7.82442,-0.3048 -14.20254,-1.4767 -17.84357,-3.2787 -28.68611,-4.2089 -48.95968,-4.2005 -15.118,0.01 -34.74259,1.3098 -35.81143,2.3786 -0.12217,0.1222 0.0968,2.4579 0.48663,5.1905 l 0.70876,4.9683 20.98958,0.6551 c 29.66841,0.9259 55.8569,3.9116 80.98957,9.2334 6.05,1.2811 11.7875,2.3928 12.75,2.4704 1.65857,0.1338 1.75,-6.7762 1.75,-132.2519 z m -367,93.6766 c 11.72568,-1.895 53.25532,-2.4558 69.59441,-0.9397 l 9.09441,0.8438 3.65559,-7.6976 c 2.01057,-4.2337 3.65559,-8.0517 3.65559,-8.4843 0,-1.0332 -13.1652,-4.5306 -24.5,-6.5087 -6.08335,-1.0616 -14.18515,-1.5118 -25,-1.3893 -8.8,0.1 -17.95757,0.1705 -20.35017,0.1572 -4.69037,-0.026 -8.10535,-1.9856 -11.58804,-6.6498 -2.04752,-2.7421 -2.06365,-3.4851 -2.32991,-107.3158 l -0.26811,-104.55453 -9.23029,0.72207 c -5.07666,0.39714 -9.56851,0.9311 -9.98188,1.18658 -0.41338,0.25548 -0.7516,55.17188 -0.7516,122.03638 v 121.5718 l 3.75,-0.6406 c 2.0625,-0.3523 8.475,-1.4042 14.25,-2.3375 z m 342,-118.7246 c 0,-66.7925 -0.33822,-121.65 -0.7516,-121.90548 -0.41337,-0.25548 -4.90522,-0.78944 -9.98188,-1.18658 l -9.23029,-0.72207 -0.26812,104.55453 c -0.26625,103.8307 -0.28239,104.5737 -2.3299,107.3158 -3.48269,4.6642 -6.89767,6.6239 -11.58804,6.6498 -2.3926,0.013 -11.55017,-0.057 -20.35017,-0.1572 -10.81485,-0.1225 -18.91665,0.3277 -25,1.3893 -11.3348,1.9781 -24.5,5.4755 -24.5,6.5087 0,0.4326 1.6434,4.2472 3.65199,8.4767 l 3.65199,7.6901 5.09801,-0.549 c 2.80391,-0.3019 15.25626,-0.8503 27.6719,-1.2185 22.67998,-0.6726 36.73858,0.141 52.42611,3.034 3.85,0.71 8.0125,1.3517 9.25,1.4259 l 2.25,0.135 z M 51.3692,896.55942 c 10.92235,-11.4014 30.74837,-21.1402 48.69617,-23.9202 l 4.25,-0.6583 v -79.2974 -79.2975 l -6.6382,-6.2097 C 76.78781,687.63535 51.2943,674.33544 21.81537,667.59938 c -9.95898,-2.27567 -15.09549,-2.82221 -30.19968,-3.21339 -10.00982,-0.25924 -19.34925,-0.18282 -20.75428,0.16982 l -2.55462,0.64117 0.25429,112.56844 0.25429,112.5683 17.5,-0.1208 c 20.02678,-0.1383 34.65525,1.8682 49.57584,6.8001 4.90829,1.6224 9.62338,2.9934 10.47799,3.0468 0.85461,0.053 3.10461,-1.5219 5,-3.5004 z m 16.94617,-28.9582 c -17.63469,-9.0601 -37.56973,-14.1135 -59.71926,-15.1384 -12.1266,-0.5612 -13.39975,-0.8039 -15.40283,-2.936 -3.04399,-3.2402 -2.76793,-8.2074 0.61801,-11.1201 2.17253,-1.8688 3.79862,-2.25 9.59926,-2.25 16.83449,0 36.45247,3.5042 54.31372,9.7015 12.42343,4.3105 27.17975,11.6614 28.55033,14.2223 2.92956,5.474 -0.71535,12.1685 -6.52368,11.9819 -1.61455,-0.052 -6.76055,-2.0594 -11.43555,-4.4612 z m 0,-42.0367 c -17.09956,-8.859 -37.71729,-14.1093 -59.3763,-15.1201 -11.27955,-0.5264 -13.19013,-0.8708 -15.40692,-2.7776 -3.53225,-3.0383 -3.33205,-8.1537 0.44632,-11.4039 2.70968,-2.3309 3.11196,-2.3777 15.30985,-1.7828 25.34085,1.2359 46.05863,6.6311 68.1865,17.7568 4.26834,2.1461 8.2286,4.7764 8.80059,5.8452 2.92879,5.4725 -0.71697,12.1669 -6.52449,11.9803 -1.61455,-0.052 -6.76055,-2.0759 -11.43555,-4.4979 z m 5,-37.2865 c -20.35179,-10.8201 -42.61246,-16.5588 -67.7671,-17.4702 -11.05283,-0.4005 -13.58311,-1.4716 -14.47295,-6.1265 -0.70678,-3.6973 1.73944,-8.3608 4.78676,-9.1257 1.46991,-0.3689 8.81072,-0.4243 16.31292,-0.1231 21.21341,0.8518 40.4013,5.5981 60.11429,14.87 5.76066,2.7095 11.49816,5.8885 12.75,7.0646 4.32959,4.0674 2.11786,11.9486 -3.72392,13.2697 -1.6764,0.3791 -4.31191,-0.398 -8,-2.3588 z m -4.48847,-51.8182 c -11.1738,-6.0453 -30.99921,-10.9989 -47.82648,-11.9498 -13.74032,-0.7764 -16.68505,-2.1557 -16.68505,-7.8151 0,-5.0824 2.73828,-7.7105 8.62263,-8.276 12.95296,-1.2446 41.5636,4.3335 56.93454,11.1002 10.10781,4.4497 12.44283,6.4929 12.44283,10.8877 0,6.6494 -6.77042,9.6877 -13.48847,6.053 z m 122.13544,159.8338 c 16.30452,-4.7903 28.6733,-6.3169 48.24219,-5.9541 l 17.11346,0.3172 -0.001,-112.7309 -10e-4,-112.731 -2.55032,-0.64009 c -5.51899,-1.38517 -38.67232,0.35495 -48.94968,2.56923 -28.76736,6.19799 -57.0108,20.55844 -76.82304,39.06086 l -7.67758,7.1695 v 79.3133 79.3133 l 4.25,0.6583 c 17.99506,2.7873 37.80437,12.5333 48.75,23.9846 2.44514,2.5581 4.10278,3.5093 5.5,3.1563 1.1,-0.2779 6.56614,-1.8469 12.14697,-3.4865 z m -51.47266,-26.4513 c -2.3352,-2.4857 -2.81522,-6.6195 -1.13354,-9.7618 1.37058,-2.5609 16.1269,-9.9118 28.55033,-14.2223 17.86125,-6.1973 37.47923,-9.7015 54.31372,-9.7015 5.80064,0 7.42673,0.3812 9.59926,2.25 3.38594,2.9127 3.662,7.8799 0.61801,11.1201 -2.00627,2.1355 -3.26433,2.3731 -15.49473,2.9259 -21.98089,0.9936 -40.94318,5.8216 -60.0393,15.2868 -10.10464,5.0084 -13.29953,5.4177 -16.41375,2.1028 z m 0,-42 c -2.3348,-2.4853 -2.81527,-6.6194 -1.13435,-9.7602 0.57199,-1.0688 4.53225,-3.6991 8.80059,-5.8452 22.12787,-11.1257 42.84565,-16.5209 68.1865,-17.7568 12.19789,-0.5949 12.60017,-0.5481 15.30985,1.7828 3.77837,3.2502 3.97857,8.3656 0.44632,11.4039 -2.21679,1.9068 -4.12737,2.2512 -15.40692,2.7776 -21.66997,1.0113 -39.98157,5.6143 -58.96028,14.8207 -11.3238,5.4931 -14.11099,5.9097 -17.24171,2.5772 z m 2.14106,-37.6926 c -4.66669,-1.8802 -5.83685,-9.215 -2.03929,-12.7826 1.25184,-1.1761 6.98934,-4.3551 12.75,-7.0646 19.71299,-9.2719 38.90088,-14.0182 60.11429,-14.87 7.5022,-0.3012 14.84301,-0.2458 16.31292,0.1231 3.04732,0.7649 5.49354,5.4284 4.78676,9.1257 -0.88984,4.6549 -3.42012,5.726 -14.47295,6.1265 -25.34096,0.9181 -47.24947,6.6227 -68.18438,17.7539 -5.27261,2.8035 -5.95887,2.9211 -9.26735,1.588 z m 2.93463,-54.2264 c -1.3837,-1.4732 -2.25,-3.6511 -2.25,-5.6567 0,-4.1731 2.49141,-6.4015 11.5,-10.286 16.43803,-7.0882 34.38187,-11.0017 51.32937,-11.1948 10.77408,-0.1228 11.42351,-0.013 13.25,2.2317 2.83754,3.4878 2.51221,8.5287 -0.71423,11.0666 -2.01597,1.5858 -4.07736,2.0726 -8.77623,2.0726 -14.82192,0 -32.03043,3.5565 -46.43261,9.5963 -11.56151,4.8485 -14.99935,5.2651 -17.9063,2.1703 z"
       id="path865-0-3-5" />
    <g
       id="g873">
      <path
         style="display:inline;fill:#57ba86;fill-opacity:1;stroke:#000000;stroke-width:0.210332px;stroke-linecap:butt;stroke-linejoin:miter;stroke-opacity:1"
         d="m 5.6541074,23.146994 c 1.7572054,-0.349653 3.5144128,-0.699327 5.2716186,-1.049001 v -2.098 c 2.460089,-0.349653 4.920176,-0.699327 7.380265,-1.049 l 1.054324,-3.147001 c 10.730558,-4.128802 20.639577,2.837 30.575386,9.441002 11.514175,-10.07615 22.091981,-10.207422 32.684033,-10.490002 v 4.196001 c 2.460089,0.349673 4.920176,0.699347 7.380265,1.049 v 2.098 c 1.757206,0.349674 3.514413,0.699348 5.271619,1.049001 V 81.891005 C 86.485587,81.191678 77.699557,80.492352 68.913526,79.793004 68.335765,86.125323 66.201825,55.138913 50,62 35.213987,55.502267 31.603448,84.742119 33.066522,78.744004 L 6.708431,81.891005 Z"
         id="path867-1-9-4-2"
         sodipodi:nodetypes="ccccccccccccccccc" />
      <path
         style="display:inline;fill:#005288;fill-opacity:1;stroke-width:0.210332"
         d="M 46.878162,96.512032 C 40.929984,95.203719 36.238044,91.489 33.715771,86.091034 33.265908,85.128303 32.732213,83.632513 32.529785,82.767088 32.327355,81.901663 32.094037,81.117241 32.011302,81.023901 31.814593,80.801996 23.428686,81.213539 19.782044,81.624034 16.364188,82.008787 11.447,82.810831 8.9392997,83.392607 6.7544227,83.899463 6.0451497,83.919582 5.2254763,83.497842 3.8842375,82.807768 3.9671895,84.851976 3.9671895,52.48969 V 23.03068 L 4.4052716,22.476557 C 5.0409233,21.67254 5.5115038,21.48265 7.5242519,21.21805 c 1.7992075,-0.236529 1.8035914,-0.238606 1.9428844,-0.917623 0.2978823,-1.452131 1.0671357,-1.84215 4.2112727,-2.135177 1.327427,-0.123719 2.566567,-0.225263 2.753646,-0.22564 0.266044,0 0.363689,-0.292566 0.448221,-1.340329 0.262718,-3.25639 1.636856,-3.843956 8.489684,-3.630065 2.895883,0.0904 4.398826,0.244417 6.340597,0.649751 6.329752,1.321362 11.897686,4.011544 16.914478,8.172362 l 1.957736,1.623705 1.943262,-1.624167 c 4.926799,-4.117787 10.584437,-6.853517 16.9,-8.1719 1.941771,-0.405334 3.444714,-0.559348 6.340597,-0.649751 6.852828,-0.213891 8.226966,0.373675 8.489684,3.630065 0.08453,1.047763 0.182177,1.339762 0.44822,1.340329 0.18708,0 1.42622,0.101921 2.753647,0.22564 3.144137,0.293027 3.91339,0.683046 4.211272,2.135177 0.139291,0.679017 0.143677,0.681094 1.942885,0.917623 2.012748,0.2646 2.483328,0.45449 3.11898,1.258507 L 97.1694,23.03068 v 29.45901 c 0,32.362286 0.08295,30.318078 -1.258287,31.008152 -0.819675,0.42174 -1.528946,0.401621 -3.713823,-0.105235 -2.5077,-0.581776 -7.424889,-1.38382 -10.842745,-1.768573 -3.646641,-0.410495 -12.032548,-0.822038 -12.229258,-0.600133 -0.08273,0.09334 -0.316052,0.877762 -0.518482,1.743187 -0.783445,3.349353 -2.749706,6.647808 -5.45226,9.146274 -2.483122,2.295612 -5.647674,3.936709 -8.834511,4.581467 -1.958807,0.396312 -5.679173,0.404914 -7.441872,0.0172 z m 8.434589,-3.756385 c 4.664997,-1.581305 8.20911,-5.109638 9.763925,-9.720414 0.489835,-1.452613 0.55127,-1.965952 0.559359,-4.673946 0.0083,-2.797306 -0.03839,-3.179667 -0.581,-4.751719 -1.755299,-5.08549 -5.913084,-8.870703 -11.045628,-10.055821 -1.831173,-0.42281 -5.078118,-0.415824 -6.949585,0.0149 -4.073987,0.937827 -7.980538,3.931925 -9.947324,7.623944 -1.170487,2.197215 -1.549837,3.688915 -1.66999,6.566805 -0.10163,2.434205 -0.06452,2.810166 0.455533,4.6156 1.552382,5.389197 5.465353,9.215782 10.921819,10.680648 2.307704,0.619539 6.184022,0.482582 8.492891,-0.300077 z m -9.287632,-4.209554 c -0.326258,-0.324603 -0.517578,-0.754672 -0.517578,-1.163425 0,-1.071197 0.797546,-1.678401 2.204496,-1.678401 h 1.16934 v -4.40578 -4.4058 h -0.72078 c -1.011535,0 -1.35779,-0.172771 -1.711964,-0.854201 -0.44327,-0.852858 -0.38704,-1.197916 0.307877,-1.889333 0.556904,-0.554103 0.75083,-0.613267 2.009988,-0.613267 0.766487,0 1.716376,0.134188 2.110861,0.298168 1.292629,0.537382 1.377854,0.953017 1.377854,6.719727 v 5.150486 h 1.16934 c 1.40695,0 2.204495,0.607204 2.204495,1.678401 0,0.408753 -0.191319,0.838822 -0.517578,1.163425 -0.513377,0.5108 -0.550234,0.514975 -4.543175,0.514975 -3.992941,0 -4.029798,-0.0042 -4.543176,-0.514975 z m 2.879468,-17.180756 c -1.757762,-1.005698 -1.264084,-3.578182 0.737953,-3.845362 0.751178,-0.100243 0.960082,-0.03185 1.576363,0.516003 0.927185,0.824262 1.00302,2.061789 0.176724,2.883911 -0.642229,0.638988 -1.793076,0.844781 -2.49104,0.445448 z M 10.174398,79.73168 c 6.56467,-1.299607 13.120273,-1.999793 18.723598,-1.999793 2.149357,0 2.937943,-0.06898 2.997807,-0.26225 0.04468,-0.144238 0.136004,-0.652856 0.202943,-1.130277 l 0.121707,-0.868006 -1.000302,-0.155 C 27.595974,74.754803 19.745329,74.92086 15.670182,75.645237 11.615766,76.365942 11.350696,76.374019 10.503996,75.802671 10.077457,75.514846 9.6597465,74.997815 9.5142899,74.577627 9.3251274,74.031182 9.2596539,67.714187 9.250709,49.146631 L 9.2388162,24.442677 H 8.6234687 c -0.3384421,0 -0.7654432,0.05732 -0.9488913,0.127348 -0.3018234,0.115243 -0.3335437,2.768815 -0.3335437,27.903406 0,15.276841 0.049003,27.776056 0.1088947,27.776056 0.05989,0 1.2859059,-0.233004 2.7244776,-0.517807 z M 93.795565,52.473431 c 0,-25.134591 -0.03172,-27.788163 -0.333544,-27.903406 -0.183448,-0.07003 -0.610449,-0.127348 -0.948891,-0.127348 h -0.615348 l -0.005,24.494154 c -0.0029,14.216911 -0.08676,24.846262 -0.199824,25.333355 -0.21137,0.910616 -0.96899,1.699842 -1.84072,1.917531 -0.302228,0.07546 -1.649894,-0.06395 -2.994815,-0.309812 -3.762579,-0.687872 -6.048889,-0.883028 -10.32387,-0.881265 -3.187852,0.0021 -7.325986,0.274796 -7.551367,0.49903 -0.02576,0.02564 0.02041,0.515668 0.102613,1.088967 l 0.149453,1.04235 4.425962,0.13744 c 6.256021,0.194254 11.77825,0.820654 17.077844,1.937167 1.275731,0.268775 2.485568,0.50201 2.688525,0.518291 0.349734,0.02807 0.369013,-1.421648 0.369013,-27.746454 z M 16.408209,72.126785 c 2.472532,-0.397571 11.229668,-0.515227 14.675006,-0.197149 l 1.91769,0.177029 0.770835,-1.614957 c 0.423959,-0.88823 0.770835,-1.689247 0.770835,-1.780006 0,-0.216765 -2.776076,-0.95052 -5.166185,-1.365526 -1.282764,-0.222723 -2.991148,-0.317175 -5.271619,-0.291475 -1.855609,0.02098 -3.786618,0.03577 -4.291133,0.03298 -0.989033,-0.0055 -1.709132,-0.416579 -2.443509,-1.395129 -0.43175,-0.575292 -0.435151,-0.731174 -0.491296,-22.514859 l -0.05654,-21.935538 -1.946342,0.151497 c -1.070489,0.08331 -2.017661,0.195344 -2.104827,0.248948 -0.08717,0.05358 -0.158486,11.575046 -0.158486,25.603221 V 72.75159 l 0.790743,-0.134398 c 0.434909,-0.07391 1.787079,-0.294602 3.004823,-0.490408 z M 88.523946,47.218359 c 0,-14.013069 -0.07132,-25.522175 -0.158486,-25.575758 -0.08716,-0.0536 -1.034338,-0.165637 -2.104826,-0.248948 l -1.946343,-0.151497 -0.05654,21.935538 c -0.05614,21.783685 -0.05955,21.939567 -0.491293,22.514859 -0.734377,0.97855 -1.454476,1.389695 -2.443509,1.395129 -0.504515,0.0027 -2.435524,-0.01196 -4.291134,-0.03298 -2.28047,-0.0257 -3.988854,0.06875 -5.271618,0.291475 -2.390109,0.415006 -5.166186,1.148761 -5.166186,1.365526 0,0.09076 0.346535,0.891063 0.770076,1.778412 l 0.770076,1.613383 1.074991,-0.11518 c 0.591245,-0.06334 3.217007,-0.178393 5.835027,-0.255641 4.782408,-0.141112 7.746871,0.02958 11.054818,0.636533 0.811829,0.148958 1.689554,0.283587 1.950499,0.299154 l 0.474445,0.02832 z M 37.716897,65.018571 c 2.303139,-2.392014 6.483747,-4.435215 10.268305,-5.018459 l 0.896175,-0.138111 V 43.225403 26.588784 l -1.399762,-1.302795 c -4.404829,-4.099682 -9.780512,-6.890001 -15.996578,-8.303235 -2.099998,-0.477442 -3.183107,-0.592098 -6.368048,-0.674172 -2.110718,-0.05438 -4.080074,-0.03835 -4.376345,0.03562 l -0.538679,0.134524 0.05362,23.616855 0.05362,23.616834 3.690133,-0.02534 c 4.222941,-0.02902 7.30757,0.391948 10.453796,1.426661 1.034985,0.34038 2.029231,0.628016 2.209439,0.639219 0.180207,0.01112 0.654652,-0.319295 1.054323,-0.734384 z m 3.57335,-6.075432 c -3.718534,-1.900809 -7.922131,-2.961013 -12.592686,-3.176037 -2.557072,-0.117739 -2.825535,-0.168658 -3.247913,-0.615973 -0.641871,-0.679794 -0.583659,-1.721912 0.130316,-2.332997 0.45811,-0.392074 0.800995,-0.47205 2.024145,-0.47205 3.549801,0 7.686541,0.735181 11.452848,2.035375 2.619664,0.904343 5.731251,2.446562 6.020258,2.983839 0.617741,1.148446 -0.150842,2.552952 -1.375614,2.513803 -0.340452,-0.01091 -1.425562,-0.432062 -2.411354,-0.93596 z m 0,-8.819301 C 37.684553,48.265219 33.337001,47.163706 28.769879,46.95164 26.39142,46.841202 25.988546,46.768947 25.521103,46.3689 c -0.744827,-0.637436 -0.702612,-1.710647 0.09411,-2.392539 0.571376,-0.489023 0.656203,-0.498841 3.228308,-0.374031 5.343491,0.259291 9.71214,1.391205 14.378128,3.725377 0.900042,0.450252 1.735121,1.002089 1.855734,1.226323 0.617578,1.148131 -0.151184,2.552616 -1.375785,2.513468 -0.340452,-0.01091 -1.425562,-0.435524 -2.411354,-0.94366 z M 42.34457,42.301129 C 38.053096,40.031071 33.359106,38.827092 28.054879,38.63588 25.724227,38.55186 25.19068,38.327138 25.003044,37.35054 c -0.149035,-0.775693 0.366787,-1.754096 1.009359,-1.914572 0.309952,-0.0774 1.85787,-0.08902 3.43982,-0.02583 4.47316,0.178707 8.519209,1.174481 12.675983,3.119726 1.21472,0.568453 2.424557,1.235408 2.688526,1.482154 0.912957,0.85334 0.446582,2.506816 -0.785244,2.783983 -0.353493,0.07953 -0.909229,-0.0835 -1.686918,-0.494876 z M 41.39811,31.429668 c -2.35616,-1.268304 -6.53664,-2.307548 -10.084917,-2.507047 -2.897349,-0.16291 -3.518289,-0.452287 -3.518289,-1.639629 0,-1.066267 0.577407,-1.617664 1.818209,-1.736285 2.731322,-0.261117 8.764297,0.909148 12.005486,2.328802 2.131381,0.933568 2.623754,1.362211 2.623754,2.28424 0,1.395044 -1.427643,2.03248 -2.844243,1.269919 z m 25.754057,33.533138 c 3.438048,-1.005005 6.046188,-1.325286 10.172576,-1.24917 l 3.608625,0.06655 -2.1e-4,-23.650947 -2.11e-4,-23.650968 -0.537773,-0.134273 c -1.16376,-0.290615 -8.154628,0.07446 -10.321761,0.539019 -6.066021,1.30034 -12.021567,4.313153 -16.199269,8.194978 l -1.618931,1.504141 v 16.639933 16.639934 l 0.896175,0.138111 c 3.794523,0.584776 7.971608,2.629487 10.279655,5.03197 0.515594,0.536689 0.865132,0.736251 1.159756,0.662192 0.231952,-0.0583 1.384568,-0.38748 2.561368,-0.731468 z M 56.298398,59.413322 c -0.492411,-0.5215 -0.59363,-1.388771 -0.239023,-2.048026 0.289007,-0.537277 3.400594,-2.079496 6.020257,-2.983839 3.766308,-1.300194 7.903048,-2.035375 11.452848,-2.035375 1.223151,0 1.566036,0.07998 2.024146,0.47205 0.713975,0.611085 0.772186,1.653203 0.130316,2.332997 -0.423051,0.448028 -0.688332,0.497877 -3.267292,0.613854 -4.634994,0.208458 -8.633472,1.221372 -12.660171,3.207172 -2.130712,1.050762 -2.804401,1.136633 -3.461081,0.441167 z m 0,-8.811601 c -0.492327,-0.521417 -0.593641,-1.388751 -0.239194,-2.047691 0.120613,-0.224234 0.955692,-0.776071 1.855734,-1.226323 4.665987,-2.334172 9.034636,-3.466086 14.378128,-3.725377 2.572105,-0.12481 2.656931,-0.114992 3.228307,0.374031 0.796725,0.681892 0.83894,1.755103 0.09411,2.392539 -0.467442,0.400047 -0.870316,0.472302 -3.248776,0.58274 -4.569432,0.212171 -8.430703,1.177881 -12.432643,3.109384 -2.38779,1.152452 -2.97551,1.239855 -3.635669,0.540697 z m 0.451474,-7.907909 c -0.98404,-0.394467 -1.230785,-1.933308 -0.430014,-2.68179 0.263969,-0.246746 1.473805,-0.913701 2.688525,-1.482154 4.156775,-1.945245 8.202824,-2.941019 12.675984,-3.119726 1.581949,-0.06319 3.129867,-0.05157 3.439819,0.02583 0.642573,0.160476 1.158394,1.138879 1.009359,1.914572 -0.187636,0.976598 -0.721182,1.201315 -3.051834,1.28534 -5.343515,0.192618 -9.963247,1.389443 -14.377681,3.724769 -1.111808,0.588174 -1.256516,0.612847 -1.954158,0.333163 z m 0.61881,-11.376701 c -0.291773,-0.309078 -0.474445,-0.766001 -0.474445,-1.186776 0,-0.875496 0.52535,-1.343014 2.424944,-2.158003 3.466201,-1.487105 7.249924,-2.308158 10.823554,-2.34867 2.271873,-0.02574 2.408815,-0.0027 2.793958,0.468211 0.598337,0.73174 0.529736,1.789321 -0.150606,2.321794 -0.425097,0.33268 -0.859772,0.43481 -1.850598,0.43481 -3.12542,0 -6.754088,0.746154 -9.790999,2.013305 -2.437915,1.017215 -3.162834,1.104618 -3.775808,0.455329 z"
         id="path865-0-3-5-5" />
    </g>
  </g>
  <g
     inkscape:groupmode="layer"
     id="layer2"
     inkscape:label="Zahl"
     style="display:none">
    <text
       xml:space="preserve"
       style="font-size:54.1316px;line-height:1.25;font-family:sans-serif;letter-spacing:0px;fill:#57ba86;fill-opacity:1;stroke-width:1.35328"
       x="53.674248"
       y="96.29055"
       id="text1432-6-3-0-1-7-8"
       transform="scale(0.99515985,1.0048637)"><tspan
         sodipodi:role="line"
         id="tspan1430-6-7-2-4-1-8"
         x="53.674248"
         y="96.29055"
         style="font-style:normal;font-variant:normal;font-weight:normal;font-stretch:normal;font-family:'Berlin Sans FB Demi';-inkscape-font-specification:'Berlin Sans FB Demi';fill:#57ba86;fill-opacity:1;stroke-width:1.35328">13</tspan></text>
  </g>
</svg>
