<?xml version="1.0" encoding="UTF-8" standalone="no"?>
<svg
   xmlns:dc="http://purl.org/dc/elements/1.1/"
   xmlns:cc="http://creativecommons.org/ns#"
   xmlns:rdf="http://www.w3.org/1999/02/22-rdf-syntax-ns#"
   xmlns:svg="http://www.w3.org/2000/svg"
   xmlns="http://www.w3.org/2000/svg"
   xmlns:sodipodi="http://sodipodi.sourceforge.net/DTD/sodipodi-0.dtd"
   xmlns:inkscape="http://www.inkscape.org/namespaces/inkscape"
   width="100.0px"
   height="100.0px"
   viewBox="0 0 100.0 100.0"
   version="1.1"
   id="SVGRoot"
   sodipodi:docname="IconDonkey.svg"
   inkscape:version="1.0.1 (3bc2e813f5, 2020-09-07)">
  <defs
     id="defs2220" />
  <sodipodi:namedview
     id="base"
     pagecolor="#ffffff"
     bordercolor="#666666"
     borderopacity="1.0"
     inkscape:pageopacity="0.0"
     inkscape:pageshadow="2"
     inkscape:zoom="0.98994949"
     inkscape:cx="-33.237373"
     inkscape:cy="-92.306481"
     inkscape:document-units="px"
     inkscape:current-layer="layer1"
     inkscape:document-rotation="0"
     showgrid="true"
     inkscape:window-width="1313"
     inkscape:window-height="1030"
     inkscape:window-x="160"
     inkscape:window-y="0"
     inkscape:window-maximized="0">
    <inkscape:grid
       type="xygrid"
       id="grid2790" />
  </sodipodi:namedview>
  <metadata
     id="metadata2223">
    <rdf:RDF>
      <cc:Work
         rdf:about="">
        <dc:format>image/svg+xml</dc:format>
        <dc:type
           rdf:resource="http://purl.org/dc/dcmitype/StillImage" />
        <dc:title></dc:title>
      </cc:Work>
    </rdf:RDF>
  </metadata>
  <g
     inkscape:label="Ebene 1"
     inkscape:groupmode="layer"
     id="layer1">
    <path
       style="fill:#005288;fill-opacity:1;stroke-width:0.79336"
       d="M 33.447338,93.181554 C 18.723398,87.711976 10.570945,74.618501 13.286949,60.802386 c 0.40744,-2.072653 0.620825,-3.768459 0.474167,-3.768459 -0.146658,0 -1.528621,1.108022 -3.071002,2.462264 C 7.4634464,62.32923 7.2984724,61.933867 8.6760924,54.669697 10.63628,44.333691 18.06004,34.526493 26.308445,31.376395 l 3.591264,-1.371518 0.547451,-6.517801 c 0.573439,-6.827129 2.235968,-15.3079567 3.727223,-19.0132337 3.294395,-8.185497 10.989592,6.6970147 10.973314,21.2223687 -0.0045,3.49079 -0.497326,8.667457 -1.096462,11.503719 -0.599136,2.836262 -0.962073,5.292229 -0.80653,5.457703 0.484967,0.515931 2.056108,-3.498606 3.424898,-8.751308 1.299514,-4.986787 1.342247,-5.039129 4.314345,-5.285437 3.808367,-0.315617 9.259468,2.738026 11.574566,6.483931 2.133012,3.451265 2.086082,3.806163 -0.379283,2.868841 -4.525936,-1.720761 -3.303258,-0.473755 5.658905,5.771495 11.60058,8.083808 18.21192,14.102093 19.38008,17.641644 1.39569,4.228988 -0.22924,8.800295 -4.72694,13.297995 -4.1802,4.180212 -5.92209,4.573735 -11.09079,2.505636 -5.6096,-2.244517 -5.28351,-6.315041 0.4541,-5.668326 1.9067,0.214915 3.46287,0.166845 3.45814,-0.10682 -0.006,-0.273661 -0.46829,-2.104117 -1.03016,-4.067682 -1.30687,-4.567214 -0.95552,-6.516317 1.64312,-9.114959 1.73557,-1.735586 1.89827,-2.222264 0.94451,-2.825607 -1.58143,-1.000433 -5.26155,-0.935728 -7.35289,0.129278 -0.95309,0.485364 -4.05349,3.134613 -6.889739,5.887238 -6.257408,6.072861 -10.841208,8.570683 -15.865428,8.645417 -7.121146,0.10593 -10.716931,-3.873024 -10.205242,-11.292731 0.230097,-3.336499 0.102657,-3.902251 -0.647858,-2.874954 -1.753506,2.400327 -2.012218,7.023075 -0.591765,10.573161 1.069895,2.673894 2.234565,3.863385 5.695037,5.816352 5.88897,3.323527 7.138314,6.161105 5.059615,11.49165 -0.814135,2.08771 -1.728176,5.491637 -2.031224,7.56429 -0.527054,3.604674 -0.660952,3.766664 -3.080811,3.727125 -1.391392,-0.02277 -4.772044,-0.874275 -7.512553,-1.89231 z m 7.584268,-1.368852 C 40.86249,91.305385 38.601415,90.303121 36.006996,89.585464 24.194863,86.31805 17.230239,77.868102 15.888237,65.17606 l -0.651199,-6.158734 -0.105551,6.11878 c -0.170697,9.897464 2.884217,16.002035 11.170912,22.322614 4.760109,3.630712 15.551403,6.820639 14.729185,4.353982 z m 6.522121,-23.671738 c -0.654528,-0.422988 -1.748028,-0.774533 -2.42999,-0.781214 -0.681974,-0.0063 -2.288533,-1.106625 -3.570132,-2.444318 -1.983291,-2.070129 -2.330162,-3.062678 -2.330162,-6.667799 0,-2.329599 -0.262297,-3.823455 -0.582869,-3.319687 -0.923684,1.451491 -0.70088,7.379158 0.365298,9.71918 1.046002,2.295713 4.550019,4.213456 7.754485,4.244 1.567133,0.01491 1.733643,-0.142512 0.79337,-0.750162 z m 10.33139,-18.102091 c 1.490408,-1.206858 1.634684,-1.713474 0.886262,-3.11191 -1.317629,-2.462024 -4.819008,-4.966869 -6.942878,-4.966869 -2.235623,0 -4.50545,3.119302 -4.137635,5.68613 0.505464,3.527178 6.930786,5.035244 10.194251,2.392649 z m -7.52421,-2.801592 c -1.909818,-1.396481 -0.924296,-2.89711 1.902658,-2.89711 2.739719,0 4.413238,1.666616 3.046206,3.033636 -1.233889,1.233893 -3.14688,1.181119 -4.948864,-0.136526 z M 41.475611,28.472972 c -0.01314,-4.367721 -0.455005,-8.537712 -1.050857,-9.916991 l -1.028199,-2.380088 -0.745527,3.173447 c -0.809458,3.445586 -0.383814,16.516505 0.617741,18.969599 1.174245,2.876088 2.230947,-1.838437 2.206842,-9.845967 z m 17.46141,-2.273824 c 0.284409,-1.367476 0.751327,-3.612886 1.037618,-4.989771 0.73918,-3.555056 -1.057871,-2.243818 -3.027623,2.209146 -1.593532,3.60242 -1.995862,3.796844 -6.141358,2.967744 -2.839191,-0.567838 -2.82377,-0.930831 0.340023,-8.005102 1.903093,-4.255345 8.374598,-11.3289037 10.364648,-11.3289037 2.439566,0 0.51955,20.4298997 -1.998901,21.2693877 -0.838908,0.279632 -0.971838,-0.21157 -0.574407,-2.122501 z"
       id="path1515-9-3"
       sodipodi:nodetypes="sssssscsssssssssssssssssssssssssssssssscsssscssssssssssssssssscsssssssssss" />
    <text
       xml:space="preserve"
       style="font-size:54.1316px;line-height:1.25;font-family:sans-serif;letter-spacing:0px;fill:#57ba86;fill-opacity:1;stroke-width:1.35328"
       x="53.584534"
       y="96.379402"
       id="text1432-6-3-0-1-7"
       transform="scale(0.99515985,1.0048637)"><tspan
         sodipodi:role="line"
         id="tspan1430-6-7-2-4-1"
         x="53.584534"
         y="96.379402"
         style="font-style:normal;font-variant:normal;font-weight:normal;font-stretch:normal;font-family:'Berlin Sans FB Demi';-inkscape-font-specification:'Berlin Sans FB Demi';fill:#57ba86;fill-opacity:1;stroke-width:1.35328">13</tspan></text>
  </g>
</svg>
