<?xml version="1.0" encoding="UTF-8" standalone="no"?>
<svg
   xmlns:dc="http://purl.org/dc/elements/1.1/"
   xmlns:cc="http://creativecommons.org/ns#"
   xmlns:rdf="http://www.w3.org/1999/02/22-rdf-syntax-ns#"
   xmlns:svg="http://www.w3.org/2000/svg"
   xmlns="http://www.w3.org/2000/svg"
   xmlns:sodipodi="http://sodipodi.sourceforge.net/DTD/sodipodi-0.dtd"
   xmlns:inkscape="http://www.inkscape.org/namespaces/inkscape"
   width="100.0px"
   height="100.0px"
   viewBox="0 0 100.0 100.0"
   version="1.1"
   id="SVGRoot"
   sodipodi:docname="IconPlayGruen.svg"
   inkscape:version="1.0.1 (3bc2e813f5, 2020-09-07)"
   inkscape:export-filename="C:\Users\rober\OneDrive\Bilder\Geosoft 2\Apollo_64_Kreis.png"
   inkscape:export-xdpi="61"
   inkscape:export-ydpi="61">
  <defs
     id="defs2220" />
  <sodipodi:namedview
     id="base"
     pagecolor="#ffffff"
     bordercolor="#666666"
     borderopacity="1.0"
     inkscape:pageopacity="0.0"
     inkscape:pageshadow="2"
     inkscape:zoom="3.959798"
     inkscape:cx="98.693393"
     inkscape:cy="59.40003"
     inkscape:document-units="px"
     inkscape:current-layer="layer3"
     inkscape:document-rotation="0"
     showgrid="true"
     inkscape:window-width="1920"
     inkscape:window-height="1001"
     inkscape:window-x="-9"
     inkscape:window-y="-9"
     inkscape:window-maximized="1">
    <inkscape:grid
       type="xygrid"
       id="grid2790" />
  </sodipodi:namedview>
  <metadata
     id="metadata2223">
    <rdf:RDF>
      <cc:Work
         rdf:about="">
        <dc:format>image/svg+xml</dc:format>
        <dc:type
           rdf:resource="http://purl.org/dc/dcmitype/StillImage" />
        <dc:title></dc:title>
      </cc:Work>
    </rdf:RDF>
  </metadata>
  <g
     inkscape:label="Donkey"
     inkscape:groupmode="layer"
     id="layer1"
     style="display:none">
    <path
       style="fill:#005288;fill-opacity:1;stroke-width:0.79336"
       d="M 33.447338,93.181554 C 18.723398,87.711976 10.570945,74.618501 13.286949,60.802386 c 0.40744,-2.072653 0.620825,-3.768459 0.474167,-3.768459 -0.146658,0 -1.528621,1.108022 -3.071002,2.462264 C 7.4634464,62.32923 7.2984724,61.933867 8.6760924,54.669697 10.63628,44.333691 18.06004,34.526493 26.308445,31.376395 l 3.591264,-1.371518 0.547451,-6.517801 c 0.573439,-6.827129 2.235968,-15.3079567 3.727223,-19.0132337 3.294395,-8.185497 10.989592,6.6970147 10.973314,21.2223687 -0.0045,3.49079 -0.497326,8.667457 -1.096462,11.503719 -0.599136,2.836262 -0.962073,5.292229 -0.80653,5.457703 0.484967,0.515931 2.056108,-3.498606 3.424898,-8.751308 1.299514,-4.986787 1.342247,-5.039129 4.314345,-5.285437 3.808367,-0.315617 9.259468,2.738026 11.574566,6.483931 2.133012,3.451265 2.086082,3.806163 -0.379283,2.868841 -4.525936,-1.720761 -3.303258,-0.473755 5.658905,5.771495 11.60058,8.083808 18.21192,14.102093 19.38008,17.641644 1.39569,4.228988 -0.22924,8.800295 -4.72694,13.297995 -4.1802,4.180212 -5.92209,4.573735 -11.09079,2.505636 -5.6096,-2.244517 -5.28351,-6.315041 0.4541,-5.668326 1.9067,0.214915 3.46287,0.166845 3.45814,-0.10682 -0.006,-0.273661 -0.46829,-2.104117 -1.03016,-4.067682 -1.30687,-4.567214 -0.95552,-6.516317 1.64312,-9.114959 1.73557,-1.735586 1.89827,-2.222264 0.94451,-2.825607 -1.58143,-1.000433 -5.26155,-0.935728 -7.35289,0.129278 -0.95309,0.485364 -4.05349,3.134613 -6.889739,5.887238 -6.257408,6.072861 -10.841208,8.570683 -15.865428,8.645417 -7.121146,0.10593 -10.716931,-3.873024 -10.205242,-11.292731 0.230097,-3.336499 0.102657,-3.902251 -0.647858,-2.874954 -1.753506,2.400327 -2.012218,7.023075 -0.591765,10.573161 1.069895,2.673894 2.234565,3.863385 5.695037,5.816352 5.88897,3.323527 7.138314,6.161105 5.059615,11.49165 -0.814135,2.08771 -1.728176,5.491637 -2.031224,7.56429 -0.527054,3.604674 -0.660952,3.766664 -3.080811,3.727125 -1.391392,-0.02277 -4.772044,-0.874275 -7.512553,-1.89231 z m 7.584268,-1.368852 C 40.86249,91.305385 38.601415,90.303121 36.006996,89.585464 24.194863,86.31805 17.230239,77.868102 15.888237,65.17606 l -0.651199,-6.158734 -0.105551,6.11878 c -0.170697,9.897464 2.884217,16.002035 11.170912,22.322614 4.760109,3.630712 15.551403,6.820639 14.729185,4.353982 z m 6.522121,-23.671738 c -0.654528,-0.422988 -1.748028,-0.774533 -2.42999,-0.781214 -0.681974,-0.0063 -2.288533,-1.106625 -3.570132,-2.444318 -1.983291,-2.070129 -2.330162,-3.062678 -2.330162,-6.667799 0,-2.329599 -0.262297,-3.823455 -0.582869,-3.319687 -0.923684,1.451491 -0.70088,7.379158 0.365298,9.71918 1.046002,2.295713 4.550019,4.213456 7.754485,4.244 1.567133,0.01491 1.733643,-0.142512 0.79337,-0.750162 z m 10.33139,-18.102091 c 1.490408,-1.206858 1.634684,-1.713474 0.886262,-3.11191 -1.317629,-2.462024 -4.819008,-4.966869 -6.942878,-4.966869 -2.235623,0 -4.50545,3.119302 -4.137635,5.68613 0.505464,3.527178 6.930786,5.035244 10.194251,2.392649 z m -7.52421,-2.801592 c -1.909818,-1.396481 -0.924296,-2.89711 1.902658,-2.89711 2.739719,0 4.413238,1.666616 3.046206,3.033636 -1.233889,1.233893 -3.14688,1.181119 -4.948864,-0.136526 z M 41.475611,28.472972 c -0.01314,-4.367721 -0.455005,-8.537712 -1.050857,-9.916991 l -1.028199,-2.380088 -0.745527,3.173447 c -0.809458,3.445586 -0.383814,16.516505 0.617741,18.969599 1.174245,2.876088 2.230947,-1.838437 2.206842,-9.845967 z m 17.46141,-2.273824 c 0.284409,-1.367476 0.751327,-3.612886 1.037618,-4.989771 0.73918,-3.555056 -1.057871,-2.243818 -3.027623,2.209146 -1.593532,3.60242 -1.995862,3.796844 -6.141358,2.967744 -2.839191,-0.567838 -2.82377,-0.930831 0.340023,-8.005102 1.903093,-4.255345 8.374598,-11.3289037 10.364648,-11.3289037 2.439566,0 0.51955,20.4298997 -1.998901,21.2693877 -0.838908,0.279632 -0.971838,-0.21157 -0.574407,-2.122501 z"
       id="path1515-9-3"
       sodipodi:nodetypes="sssssscsssssssssssssssssssssssssssssssscsssscssssssssssssssssscsssssssssss" />
  </g>
  <g
     inkscape:groupmode="layer"
     id="layer3"
     inkscape:label="Play">
    <path
       style="fill:#57ba86;fill-opacity:1;stroke-width:0.704184"
       d="m 154.24749,167.42768 c -0.49228,-0.1789 -1.36371,-1.23166 -1.93651,-2.33934 -0.83923,-1.62288 -1.04146,-5.49869 -1.04146,-19.95979 0,-9.8702 0.30274,-18.74208 0.67275,-19.71529 0.37002,-0.97322 1.46302,-2.28727 2.42889,-2.92014 1.73236,-1.13508 1.99246,-1.00412 19.22044,9.67756 15.13257,9.38251 17.46432,11.05901 17.46432,12.55684 0,1.49672 -1.95845,2.90938 -14.59954,10.53089 -18.37059,11.07592 -21.10096,12.57202 -22.20889,12.16927 z"
       id="path903"
       sodipodi:nodetypes="csssscssc" />
    <g
       id="g940"
       transform="matrix(0.96591328,0,0,0.96591328,-121.89433,1.073447)">
      <ellipse
         style="fill:#005288;fill-opacity:1;stroke:none;stroke-width:0.367344;paint-order:markers fill stroke"
         id="path936"
         cx="177.77791"
         cy="50.681469"
         rx="47.227383"
         ry="47.505302" />
      <path
         style="fill:#57ba86;fill-opacity:1;stroke-width:0.704184"
         d="m 166.95132,99.764461 c -2.51745,-0.539119 -7.58758,-2.461938 -11.26694,-4.272901 -5.5473,-2.730342 -7.72428,-4.32719 -12.74759,-9.350487 -5.05989,-5.059893 -6.59437,-7.15988 -9.31484,-12.747581 -12.88868,-26.472811 -1.41755,-56.468809 26.06627,-68.16095 2.00846,-0.8544394 6.73129,-2.0738002 10.49518,-2.7097003 18.27403,-3.0873853 36.96779,4.7232488 47.9511,20.0349393 13.60921,18.972436 12.02806,45.011162 -3.76932,62.073807 -12.28969,13.273981 -29.87941,18.888022 -47.41386,15.132873 z m 21.50571,-5.608122 c 11.96616,-3.041746 23.57998,-12.29017 28.72614,-22.875399 3.85888,-7.937453 4.92187,-13.051767 4.53536,-21.820905 -0.4003,-9.082149 -2.54694,-15.754117 -7.31306,-22.729545 C 208.07296,17.462547 197.75541,10.502084 187.02056,8.2560005 165.35154,3.7221551 143.59763,15.972031 136.13202,36.91198 c -2.39858,6.727687 -2.97988,17.816364 -1.28741,24.558399 3.93634,15.680574 16.61951,28.575571 32.10671,32.64296 5.16564,1.356655 16.25065,1.378815 21.50571,0.04291 z M 165,75 c -0.49227,-0.178907 -1.3637,-1.231662 -1.9365,-2.339343 -0.83923,-1.622881 -1.04146,-5.498688 -1.04146,-19.959791 0,-9.870197 0.30273,-18.74208 0.67275,-19.715285 0.37001,-0.973226 1.46301,-2.287278 2.42888,-2.920141 1.73236,-1.135079 1.99246,-1.004123 19.22045,9.677558 15.13256,9.382505 17.46431,11.059013 17.46431,12.556835 0,1.496721 -1.95844,2.909381 -14.59954,10.530897 C 168.83831,73.906644 166.10794,75.402749 165,75 Z"
         id="path903-1" />
    </g>
  </g>
  <g
     inkscape:groupmode="layer"
     id="layer4"
     inkscape:label="Power"
     style="display:inline">
    <path
       style="fill:#000000;stroke-width:0.32"
       d="m -189.72958,261.05164 c -11.24586,-1.48763 -21.03298,-4.13146 -30.51042,-8.2419 -18.44007,-7.99758 -34.63508,-21.11836 -46.48948,-37.6646 -11.2091,-15.64551 -18.25716,-34.54273 -20.06017,-53.78514 -0.42634,-4.55017 -0.42475,-16.43308 0.003,-20.68609 2.6366,-26.22871 13.67199,-49.713971 31.9767,-68.05202 7.45368,-7.467254 18.5182,-15.755104 24.9711,-18.704521 3.45101,-1.577354 7.59278,-1.40769 11.42996,0.468221 6.54607,3.200211 9.21221,11.774518 5.81008,18.685218 -1.23626,2.511201 -3.17737,4.366871 -7.16096,6.845801 -5.89363,3.66749 -9.32067,6.35013 -14.51665,11.36339 -13.54202,13.065841 -21.98544,29.876841 -24.75114,49.280001 -0.54468,3.82125 -0.54141,17.33295 0.005,21.12 1.20894,8.37727 3.35079,15.98649 6.47517,23.00393 4.02259,8.08436 6.96867,13.28999 11.76226,19.00525 14.56851,17.41639 34.31406,28.01964 56.19922,30.17868 4.81951,0.47546 15.48563,0.20638 20.02602,-0.50521 25.80106,-4.04364 48.38402,-19.98375 61.20674,-43.20265 6.38038,-11.55336 9.68273,-23.53169 10.0573,-36.48 0.50522,-17.46493 -3.47799,-32.00046 -13.10974,-47.84 -2.14,-3.51926 -6.67286,-9.016221 -11.10667,-13.468981 -5.51675,-5.54032 -8.96324,-8.32183 -15.10935,-12.19408 -4.53944,-2.86 -6.43451,-4.68537 -7.84392,-7.55543 -0.83447,-1.69928 -0.89449,-2.08992 -0.89449,-5.821507 0,-5.170553 0.62949,-6.932361 3.492,-9.773379 4.57414,-4.539801 10.31424,-5.434531 16.10678,-2.510621 4.82209,2.434052 13.19663,8.396372 18.66744,13.290429 20.3257,18.182898 32.65758,41.316689 36.65031,68.753569 0.67079,4.60946 0.94643,18.90324 0.46872,24.30613 -2.30032,26.01646 -13.49141,49.9431 -32.01568,68.44973 -14.06169,14.0483 -30.9844,23.81211 -49.92957,28.80762 -10.03748,2.6467 -14.95318,3.26257 -27.2,3.40781 -8.50963,0.10091 -10.78567,0.0262 -14.60958,-0.47965 z m 70.15244,-48.31391 c 0,-0.48222 -0.096,-0.54259 -0.42658,-0.26825 -0.38301,0.31787 -0.25069,0.60014 0.41515,0.88562 0.006,0.003 0.0114,-0.27512 0.0114,-0.61737 z m -61.09297,-72.96963 c -3.84022,-1.2269 -7.06356,-4.23918 -8.63283,-8.06756 L -190,130 -190.0862,90.983299 c -0.0774,-35.039911 -0.0338,-39.198452 0.42774,-40.799994 1.15985,-4.024333 3.65535,-6.948989 7.49848,-8.787987 1.95571,-0.93584 2.30035,-0.995315 5.7676,-0.995315 3.50626,0 3.78949,0.05047 5.76,1.026403 2.74514,1.35959 4.31343,2.706035 5.76153,4.946534 2.39209,3.701018 2.27364,1.254611 2.16658,44.747059 L -162.79997,130 l -0.69719,1.70087 c -2.7501,6.70921 -10.30909,10.26015 -17.17293,8.06723 z"
       id="path887"
       sodipodi:nodetypes="sssscssssssscccssssssssssssssssssssscsssscscssssscsss" />
  </g>
  <g
     inkscape:groupmode="layer"
     id="layer2"
     inkscape:label="Zahl"
     sodipodi:insensitive="true"
     style="display:none">
    <text
       xml:space="preserve"
       style="font-size:54.1316px;line-height:1.25;font-family:sans-serif;letter-spacing:0px;fill:#57ba86;fill-opacity:1;stroke-width:1.35328"
       x="53.674248"
       y="96.29055"
       id="text1432-6-3-0-1-7-8"
       transform="scale(0.99515985,1.0048637)"><tspan
         sodipodi:role="line"
         id="tspan1430-6-7-2-4-1-8"
         x="53.674248"
         y="96.29055"
         style="font-style:normal;font-variant:normal;font-weight:normal;font-stretch:normal;font-family:'Berlin Sans FB Demi';-inkscape-font-specification:'Berlin Sans FB Demi';fill:#57ba86;fill-opacity:1;stroke-width:1.35328">13</tspan></text>
  </g>
</svg>
