<?xml version="1.0" encoding="UTF-8" standalone="no"?>
<svg
   xmlns:dc="http://purl.org/dc/elements/1.1/"
   xmlns:cc="http://creativecommons.org/ns#"
   xmlns:rdf="http://www.w3.org/1999/02/22-rdf-syntax-ns#"
   xmlns:svg="http://www.w3.org/2000/svg"
   xmlns="http://www.w3.org/2000/svg"
   xmlns:sodipodi="http://sodipodi.sourceforge.net/DTD/sodipodi-0.dtd"
   xmlns:inkscape="http://www.inkscape.org/namespaces/inkscape"
   width="100.0px"
   height="100.0px"
   viewBox="0 0 100.0 100.0"
   version="1.1"
   id="SVGRoot"
   sodipodi:docname="IconDownload.svg"
   inkscape:version="1.0.1 (3bc2e813f5, 2020-09-07)"
   inkscape:export-filename="C:\Users\rober\OneDrive\Bilder\Geosoft 2\Apollo_64_Kreis.png"
   inkscape:export-xdpi="61"
   inkscape:export-ydpi="61">
  <defs
     id="defs2220" />
  <sodipodi:namedview
     id="base"
     pagecolor="#ffffff"
     bordercolor="#666666"
     borderopacity="1.0"
     inkscape:pageopacity="0.0"
     inkscape:pageshadow="2"
     inkscape:zoom="3.959798"
     inkscape:cx="86.566111"
     inkscape:cy="67.259693"
     inkscape:document-units="px"
     inkscape:current-layer="layer1"
     inkscape:document-rotation="0"
     showgrid="true"
     inkscape:window-width="1920"
     inkscape:window-height="1001"
     inkscape:window-x="-9"
     inkscape:window-y="-9"
     inkscape:window-maximized="1">
    <inkscape:grid
       type="xygrid"
       id="grid2790" />
  </sodipodi:namedview>
  <metadata
     id="metadata2223">
    <rdf:RDF>
      <cc:Work
         rdf:about="">
        <dc:format>image/svg+xml</dc:format>
        <dc:type
           rdf:resource="http://purl.org/dc/dcmitype/StillImage" />
        <dc:title></dc:title>
      </cc:Work>
    </rdf:RDF>
  </metadata>
  <g
     inkscape:label="Ebene 1"
     inkscape:groupmode="layer"
     id="layer1">
    <circle
       style="fill:#ffffff;stroke:#ffffff;stroke-width:0.377953;paint-order:markers fill stroke"
       id="path851"
       cx="299.6391"
       cy="42.762718"
       r="50" />
    <path
       style="fill:#005288;fill-opacity:1;stroke-width:0.79336"
       d="M 283.08643,85.944273 C 268.36249,80.474695 260.21004,67.38122 262.92604,53.565105 c 0.40744,-2.072653 0.62083,-3.768459 0.47417,-3.768459 -0.14666,0 -1.52862,1.108022 -3.071,2.462264 -3.22667,2.833039 -3.39164,2.437676 -2.01402,-4.826494 1.96018,-10.336006 9.38394,-20.143204 17.63235,-23.293302 l 3.59126,-1.371518 0.54745,-6.517801 c 0.57344,-6.827129 2.23597,-15.3079567 3.72723,-19.0132337 3.29439,-8.1854973 10.98959,6.6970147 10.97331,21.2223687 -0.005,3.49079 -0.49733,8.667457 -1.09646,11.503719 -0.59914,2.836262 -0.96208,5.292229 -0.80653,5.457703 0.48496,0.515931 2.05611,-3.498606 3.4249,-8.751308 1.29951,-4.986787 1.34224,-5.039129 4.31434,-5.285437 3.80837,-0.315617 9.25947,2.738026 11.57457,6.483931 2.13301,3.451265 2.08608,3.806163 -0.37929,2.868841 -4.52593,-1.720761 -3.30325,-0.473755 5.65891,5.771495 11.60058,8.083808 18.21192,14.102093 19.38008,17.641644 1.39569,4.228988 -0.22924,8.800295 -4.72694,13.297995 -4.1802,4.180212 -5.92209,4.573735 -11.09079,2.505636 -5.6096,-2.244517 -5.28351,-6.315041 0.4541,-5.668326 1.9067,0.214915 3.46287,0.166845 3.45814,-0.10682 -0.006,-0.273661 -0.46829,-2.104117 -1.03016,-4.067682 -1.30687,-4.567214 -0.95552,-6.516317 1.64312,-9.114959 1.73557,-1.735586 1.89827,-2.222264 0.94451,-2.825607 -1.58143,-1.000433 -5.26155,-0.935728 -7.35289,0.129278 -0.95309,0.485364 -4.05349,3.134613 -6.88974,5.887238 -6.25741,6.072861 -10.84121,8.570683 -15.86543,8.645417 -7.12114,0.10593 -10.71693,-3.873024 -10.20524,-11.292731 0.2301,-3.336499 0.10266,-3.902251 -0.64786,-2.874954 -1.7535,2.400327 -2.01222,7.023075 -0.59176,10.573161 1.06989,2.673894 2.23456,3.863385 5.69503,5.816352 5.88897,3.323527 7.13832,6.161105 5.05962,11.49165 -0.81414,2.08771 -1.72818,5.491637 -2.03122,7.56429 -0.52706,3.604674 -0.66096,3.766664 -3.08082,3.727125 -1.39139,-0.02277 -4.77204,-0.874275 -7.51255,-1.89231 z m 7.58427,-1.368852 c -0.16912,-0.507317 -2.43019,-1.509581 -5.02461,-2.227238 -11.81213,-3.267414 -18.77676,-11.717362 -20.11876,-24.409404 l -0.6512,-6.158734 -0.10555,6.11878 c -0.1707,9.897464 2.88422,16.002035 11.17091,22.322614 4.76011,3.630712 15.5514,6.820639 14.72919,4.353982 z m 6.52212,-23.671738 c -0.65453,-0.422988 -1.74803,-0.774533 -2.42999,-0.781214 -0.68197,-0.0063 -2.28853,-1.106625 -3.57013,-2.444318 -1.98329,-2.070129 -2.33016,-3.062678 -2.33016,-6.667799 0,-2.329599 -0.2623,-3.823455 -0.58287,-3.319687 -0.92369,1.451491 -0.70088,7.379158 0.3653,9.71918 1.046,2.295713 4.55001,4.213456 7.75448,4.244 1.56713,0.01491 1.73364,-0.142512 0.79337,-0.750162 z m 10.33139,-18.102091 c 1.49041,-1.206858 1.63468,-1.713474 0.88626,-3.11191 -1.31763,-2.462024 -4.81901,-4.966869 -6.94288,-4.966869 -2.23562,0 -4.50545,3.119302 -4.13763,5.68613 0.50546,3.527178 6.93078,5.035244 10.19425,2.392649 z M 300,40 c -1.90982,-1.396481 -0.9243,-2.89711 1.90266,-2.89711 2.73972,0 4.41324,1.666616 3.0462,3.033636 C 303.71497,41.370419 301.80198,41.317645 300,40 Z m -8.8853,-18.764309 c -0.0131,-4.367721 -0.455,-8.537712 -1.05085,-9.916991 l -1.0282,-2.380088 -0.74553,3.173447 c -0.80946,3.445586 -0.38381,16.516505 0.61774,18.969599 1.17425,2.876088 2.23095,-1.838437 2.20684,-9.845967 z m 17.46141,-2.273824 c 0.28441,-1.367476 0.75133,-3.612886 1.03762,-4.989771 0.73918,-3.555056 -1.05787,-2.243818 -3.02762,2.209146 -1.59353,3.60242 -1.99586,3.796844 -6.14136,2.967744 -2.83919,-0.567838 -2.82377,-0.930831 0.34002,-8.005102 1.9031,-4.255345 8.3746,-11.3289037 10.36465,-11.3289037 2.43957,0 0.51955,20.4298997 -1.9989,21.2693877 -0.83891,0.279632 -0.97184,-0.21157 -0.57441,-2.122501 z"
       id="path1515-9-3"
       sodipodi:nodetypes="sssssscsssssssssssssssssssssssssssssssscsssscssssssssssssssssscsssssssssss" />
    <text
       xml:space="preserve"
       style="font-size:54.1316px;line-height:1.25;font-family:sans-serif;letter-spacing:0px;fill:#57ba86;fill-opacity:1;stroke-width:1.35328"
       x="304.43781"
       y="89.177155"
       id="text1432-6-3-0-1-7"
       transform="scale(0.99515985,1.0048637)"><tspan
         sodipodi:role="line"
         id="tspan1430-6-7-2-4-1"
         x="304.43781"
         y="89.177155"
         style="font-style:normal;font-variant:normal;font-weight:normal;font-stretch:normal;font-family:'Berlin Sans FB Demi';-inkscape-font-specification:'Berlin Sans FB Demi';fill:#57ba86;fill-opacity:1;stroke-width:1.35328">13</tspan></text>
    <path
       style="fill:#000000"
       d="m -1049.5,584.99524 c -25.3517,-2.32393 -49.1857,-15.54822 -65.0405,-36.08767 -18.9147,-24.50364 -24.1048,-58.44614 -13.4074,-87.68257 10.0904,-27.57779 33.4894,-49.38898 61.5984,-57.41857 4.3172,-1.23326 7.9749,-2.31217 8.1283,-2.39757 0.1533,-0.0854 0.9177,-4.37984 1.6986,-9.54319 5.5158,-36.46768 26.3572,-70.12979 56.6273,-91.4617 15.71435,-11.0742 36.25734,-19.56087 55.45177,-22.9081 11.56423,-2.01663 34.42606,-1.97263 46.51731,0.0895 26.42871,4.5074 50.81461,16.8332 70.51237,35.64033 l 9.16225,8.74798 5.26229,-0.99798 c 2.89426,-0.54885 10.54317,-0.99794 16.99757,-0.99794 25.09509,0 47.86203,9.63199 65.65145,27.7751 14.08524,14.36528 22.5386,31.88266 25.45871,52.75657 l 1.20183,8.59105 4.08987,2.07939 c 15.50287,7.88202 30.98715,23.65961 39.05802,39.79788 6.81214,13.62135 9.82693,26.7384 9.7681,42.5 -0.15967,42.77082 -28.43961,78.28342 -71.44235,89.71387 L -730.5,585.3962 -886,585.56239 c -85.525,0.0914 -159.1,-0.16381 -163.5,-0.56715 z M -920,550 c 1.27503,-0.80507 1.57499,-6.59014 2,-38.57253 l 0.5,-37.62542 2.80576,-2.41215 c 2.70236,-2.32325 3.37233,-2.41215 18.17858,-2.41215 16.32202,0 18.51566,-0.59815 18.51566,-5.04878 0,-1.04825 -5.9625,-8.52026 -13.25,-16.60446 -7.2875,-8.0842 -18.13192,-20.13189 -24.09872,-26.77265 -11.22957,-12.49798 -13.71157,-14.3389 -17.76085,-13.17336 -3.47285,0.99962 -50.89043,53.80038 -50.89043,56.66787 0,4.26863 2.35275,4.93138 17.50633,4.93138 7.89991,0 15.53805,0.44657 16.97364,0.99239 5.09406,1.93675 5.40751,4.41387 5.44173,43.00391 0.0287,32.35026 0.18343,35.60741 1.74602,36.75 2.04127,1.49261 20.05291,1.71518 22.33228,0.27595 z m 103.63075,-26.53951 c 13.67809,-15.13449 25.0057,-28.3534 25.17247,-29.37536 0.16677,-1.02195 -0.42788,-2.58918 -1.32143,-3.48273 -1.34232,-1.34233 -4.01916,-1.62465 -15.404,-1.62465 -7.57864,0 -15.21017,-0.49879 -16.95895,-1.10842 -5.957,-2.07662 -6.09181,-3.01597 -6.09181,-42.44704 0,-25.18384 -0.33478,-36.11043 -1.13596,-37.07579 -1.50043,-1.80791 -21.90657,-1.95325 -23.69107,-0.16875 -0.8887,0.8887 -1.2,10.49992 -1.2,37.04966 0,39.61509 -0.13501,40.55595 -6.11884,42.64192 -1.74878,0.60963 -9.54746,1.10842 -17.33038,1.10842 -22.90097,0 -22.95291,-0.24339 7.083,33.19163 12.99858,14.4696 24.33459,26.87087 25.19113,27.55837 0.85654,0.6875 2.76768,1.25 4.24697,1.25 2.25182,0 6.73769,-4.4791 27.55887,-27.51726 z"
       id="path849-8" />
    <path
       style="fill:#005288;fill-opacity:1;stroke-width:0.197781"
       d="M 18.742999,78.859783 C 13.728915,78.400154 9.0150091,75.784645 5.8792541,71.72234 2.1382903,66.875993 1.111783,60.162823 3.2275119,54.380423 5.2232117,48.926069 9.8510735,44.612238 15.410486,43.02414 c 0.853869,-0.243915 1.577297,-0.457302 1.607619,-0.474193 0.03032,-0.01689 0.181505,-0.866247 0.335964,-1.887458 1.09091,-7.212602 5.212946,-13.870318 11.199783,-18.089357 3.107992,-2.190263 7.170998,-3.868762 10.967285,-4.53078 2.287181,-0.39885 6.808809,-0.390148 9.200224,0.0177 5.227088,0.891476 10.050148,3.329281 13.945984,7.048968 l 1.812115,1.730181 1.04078,-0.197381 c 0.572428,-0.108552 2.085235,-0.197373 3.36179,-0.197373 4.963324,0 9.466184,1.905021 12.984587,5.493377 2.785788,2.841177 4.457699,6.305776 5.035241,10.434231 l 0.237699,1.699144 0.808897,0.411263 c 3.066168,1.558911 6.128659,4.679413 7.724921,7.871251 1.347309,2.69404 1.943576,5.288338 1.931941,8.405678 -0.03158,8.459241 -5.624805,15.482947 -14.129915,17.743669 l -1.640371,0.436023 -30.754893,0.03287 c -16.915191,0.01808 -31.466903,-0.0324 -32.337138,-0.11217 z"
       id="path849"
       sodipodi:nodetypes="sssssssssscsssscsssscss" />
    <path
       style="fill:#57ba86;fill-opacity:1;stroke:none;stroke-width:0.197781px;stroke-linecap:butt;stroke-linejoin:miter;stroke-opacity:1"
       d="M 57.754918,36.332675 H 43.910272 v 15.822453 h -8.90013 L 50.832595,67.97758 66.655048,52.155128 h -8.90013 z"
       id="path881"
       sodipodi:nodetypes="cccccccc" />
  </g>
</svg>
